<?xml version="1.0" encoding="UTF-8"?>
<svg width="62px" height="62px" viewBox="0 0 62 62" version="1.1" xmlns="http://www.w3.org/2000/svg" xmlns:xlink="http://www.w3.org/1999/xlink">
    <title>Group 2</title>
    <g id="Page-1" stroke="none" stroke-width="1" fill="none" fill-rule="evenodd">
        <g id="Group-2">
            <circle id="Oval" fill="#FAB70C" cx="31" cy="31" r="31"></circle>
            <path d="M26.0270968,36.8458065 L25.1001218,10.5 L36.8998782,10.5 L35.9729032,36.8458065 L26.0270968,36.8458065 Z M24.8103226,45.3103226 C24.8103226,44.463871 24.9690323,43.6615054 25.2864516,42.9032258 C25.603871,42.1449462 26.0447312,41.4836559 26.6090323,40.9193548 C27.1733333,40.3550538 27.8346237,39.9141935 28.5929032,39.5967742 C29.3511828,39.2793548 30.1535484,39.1206452 31,39.1206452 C31.8464516,39.1206452 32.6488172,39.2793548 33.4070968,39.5967742 C34.1653763,39.9141935 34.8266667,40.3550538 35.3909677,40.9193548 C35.9552688,41.4836559 36.396129,42.1449462 36.7135484,42.9032258 C37.0309677,43.6615054 37.1896774,44.463871 37.1896774,45.3103226 C37.1896774,46.1567742 37.0309677,46.9591398 36.7135484,47.7174194 C36.396129,48.4756989 35.9552688,49.1369892 35.3909677,49.7012903 C34.8266667,50.2655914 34.1653763,50.7064516 33.4070968,51.023871 C32.6488172,51.3412903 31.8464516,51.5 31,51.5 C30.1535484,51.5 29.3511828,51.3412903 28.5929032,51.023871 C27.8346237,50.7064516 27.1733333,50.2655914 26.6090323,49.7012903 C26.0447312,49.1369892 25.603871,48.4756989 25.2864516,47.7174194 C24.9690323,46.9591398 24.8103226,46.1567742 24.8103226,45.3103226 Z" id="Shape" fill="#000000" fill-rule="nonzero"></path>
        </g>
    </g>
</svg>