<svg id="Group_4" data-name="Group 4" xmlns="http://www.w3.org/2000/svg" xmlns:xlink="http://www.w3.org/1999/xlink" width="31.985" height="34.273" viewBox="0 0 31.985 34.273">
  <defs>
    <clipPath id="clip-path">
      <rect id="Rectangle_3" data-name="Rectangle 3" width="31.985" height="34.273"/>
    </clipPath>
  </defs>
  <g id="Group_3" data-name="Group 3" transform="translate(0 0)" clip-path="url(#clip-path)">
    <path id="Path_16" data-name="Path 16" d="M15.992.673a15.5,15.5,0,0,1,7.995,2.159,16.153,16.153,0,0,1,5.836,5.836,15.511,15.511,0,0,1,2.161,8,15.5,15.5,0,0,1-2.161,7.995A16.153,16.153,0,0,1,23.987,30.5a15.5,15.5,0,0,1-7.995,2.161,15.511,15.511,0,0,1-8-2.161A16.166,16.166,0,0,1,2.161,24.66,15.5,15.5,0,0,1,0,16.665a15.511,15.511,0,0,1,2.161-8A16.166,16.166,0,0,1,7.995,2.832,15.509,15.509,0,0,1,15.992.673ZM3.1,16.665a13.242,13.242,0,0,0,.257,2.578H8.383c-.086-.945-.13-1.806-.13-2.578s.043-1.636.13-2.58H3.352A13.268,13.268,0,0,0,3.1,16.665Zm5.674-5.676a21.378,21.378,0,0,1,2-6.126A14.177,14.177,0,0,0,7.06,7.378a11.849,11.849,0,0,0-2.611,3.611Zm-4.32,11.35A11.788,11.788,0,0,0,7.06,25.95a14.177,14.177,0,0,0,3.708,2.514,21.378,21.378,0,0,1-2-6.126Zm16.056-3.1q.13-1.482.13-2.611c0-.752-.043-1.6-.13-2.547H11.479q-.13,1.417-.13,2.58c0,.772.043,1.633.13,2.578ZM15.992,3.769q-.968,0-2.128,1.869a16.583,16.583,0,0,0-1.935,5.351h8.124a16.584,16.584,0,0,0-1.933-5.351Q16.959,3.768,15.992,3.769Zm0,25.793q.968,0,2.128-1.872a16.584,16.584,0,0,0,1.933-5.351H11.929a16.583,16.583,0,0,0,1.935,5.351Q15.026,29.56,15.992,29.562ZM27.535,10.989a11.814,11.814,0,0,0-2.613-3.611,14.122,14.122,0,0,0-3.705-2.514,21.457,21.457,0,0,1,2,6.126ZM21.216,28.465a14.122,14.122,0,0,0,3.705-2.514,11.754,11.754,0,0,0,2.613-3.611h-4.32A21.457,21.457,0,0,1,21.216,28.465ZM23.6,19.243H28.63a12.968,12.968,0,0,0,0-5.158H23.6q.13,1.417.13,2.58C23.731,17.437,23.687,18.3,23.6,19.243Z" transform="translate(0 1.036)"/>
  </g>
</svg>
