<svg xmlns="http://www.w3.org/2000/svg" width="200" height="75" viewBox="0 0 200 75" fill="none"><path d="M79.5589 12.3081V23.1464H67.8418V12.3081H62.1485V38.3935H67.8418V28.29H79.5589V38.3935H85.2522V12.3081H79.5589Z" fill="#4D00AE"></path><path d="M99.8403 38.9446C107.26 38.9446 111.631 35.4175 111.631 29.8698V12.3081H105.938V29.3922C105.938 32.0742 103.77 33.801 99.8036 33.801C95.8366 33.801 93.6695 32.0742 93.6695 29.3922V12.3081H87.9763V29.8698C87.9763 35.4175 92.384 38.9446 99.8403 38.9446Z" fill="#4D00AE"></path><path d="M141.136 12.3081H133.753L127.766 27.9961L121.742 12.3081H114.359V38.3935H119.722V21.1624L125.709 38.3935H129.786L135.773 21.1624V38.3935H141.136V12.3081Z" fill="#4D00AE"></path><path d="M162.799 38.3935H168.419L159.86 12.3081H151.155L142.597 38.3935H148.217L149.796 33.801H161.219L162.799 38.3935ZM159.42 28.6574H151.596L155.526 17.4884L159.42 28.6574Z" fill="#4D00AE"></path><path d="M186.032 12.3081V28.437L175.416 12.3081H169.87V38.3935H175.416V22.3381L186.032 38.3935H191.578V12.3081H186.032Z" fill="#4D00AE"></path><path d="M73.8656 40.9652H62.1485V67.0505H73.9023C81.1383 67.0505 85.5093 63.5235 85.5093 57.9758V50.0399C85.5093 44.4922 81.1383 40.9652 73.8656 40.9652ZM79.816 57.4982C79.816 60.1802 77.7958 61.9069 74.2329 61.9069H67.8418V46.1088H74.2696C77.7958 46.1088 79.816 47.8355 79.816 50.5176V57.4982Z" fill="#4D00AE"></path><path d="M88.236 67.0505H93.9292V40.9652H88.236V67.0505Z" fill="#4D00AE"></path><path d="M120.653 50.3706V49.4888C120.653 43.9411 116.282 40.4141 108.642 40.4141C101.002 40.4141 96.6309 43.9411 96.6309 49.4888V58.5269C96.6309 64.0746 101.039 67.6016 108.679 67.6016C116.282 67.6016 120.653 64.0746 120.653 58.5269V52.9057H108.532V58.0493H114.96C114.96 60.7313 112.572 62.458 108.642 62.458C104.712 62.458 102.324 60.7313 102.324 58.0493V49.9665C102.324 47.2844 104.748 45.5577 108.679 45.5577C112.572 45.5577 114.96 47.2844 114.96 49.9665V50.3706H120.653Z" fill="#4D00AE"></path><path d="M123.74 67.0505H129.433V40.9652H123.74V67.0505Z" fill="#4D00AE"></path><path d="M154.284 40.9652H132.245V46.1088H140.436V67.0505H146.129V46.1088H154.284V40.9652Z" fill="#4D00AE"></path><path d="M172.029 67.0505H177.649L169.09 40.9652H160.385L151.827 67.0505H157.447L159.026 62.458H170.45L172.029 67.0505ZM168.65 57.3145H160.826L164.756 46.1455L168.65 57.3145Z" fill="#4D00AE"></path><path d="M185.895 61.9069V40.9652H180.202V67.0505H200V61.9069H185.895Z" fill="#4D00AE"></path><path d="M13.8844 74.2019C6.22886 74.2019 0 67.9723 0 60.314V53.8702C0 51.3033 0.999248 48.8904 2.81329 47.0759C4.62734 45.2614 7.03964 44.2619 9.60513 44.2619H10.8923L10.8915 42.8894C10.8899 40.677 11.7496 38.597 13.3118 37.032C14.8748 35.467 16.9527 34.6038 19.1645 34.603L22.1583 34.6014H22.1631C24.3348 34.6014 26.3758 35.4469 27.9124 36.9815C29.4497 38.5176 30.2974 40.5607 30.2982 42.7346V42.8549C30.299 45.0769 29.4393 47.1633 27.8779 48.73C26.3149 50.2982 24.2346 51.1621 22.0203 51.1621H17.794L17.798 56.4644C17.7996 58.7891 18.5374 60.9453 19.7901 62.7117C19.8454 62.5657 19.8991 62.4229 19.9505 62.2858C20.8735 59.8295 22.0219 56.7725 24.3829 54.2657C26.517 52.0004 29.2958 50.5789 32.6704 50.0206L32.648 8.81664C32.6472 6.91149 34.1901 5.36652 36.0948 5.36572H36.0964C38.0003 5.36572 39.5441 6.90909 39.5449 8.81343L39.5705 56.6497H36.1205C32.081 56.6497 30.3519 57.9893 29.4024 58.9977C27.991 60.4961 27.1858 62.6395 26.4071 64.7123C26.132 65.4439 25.8617 66.1626 25.5674 66.8533C26.541 67.1413 27.5715 67.2961 28.6365 67.2961C36.6714 67.2961 43.2082 60.7576 43.2082 52.7207V33.8642C43.2082 31.9591 44.752 30.4149 46.6567 30.4149C48.5613 30.4149 50.1051 31.9591 50.1051 33.8642V52.7207C50.1051 58.457 47.8717 63.8492 43.8169 67.9049C39.7622 71.9607 34.3706 74.1947 28.6365 74.1947C25.8754 74.1947 23.2097 73.5674 20.8038 72.381C18.7523 73.5658 16.3689 74.2003 13.8844 74.2003V74.2019ZM9.60513 51.1613C8.88176 51.1613 8.20169 51.4429 7.69004 51.9547C7.17838 52.4664 6.89689 53.1475 6.89689 53.871V60.3148C6.89689 64.1684 10.031 67.3041 13.8844 67.3041C14.117 67.3041 14.3479 67.2937 14.5757 67.2728C12.1963 64.1901 10.9059 60.4303 10.9027 56.4717L10.8987 51.1621H9.60673L9.60513 51.1613ZM17.7892 44.2643H22.0195C22.516 44.2643 22.8424 44.0116 22.9923 43.8608C23.1447 43.7076 23.4013 43.3739 23.4005 42.8581V42.7378C23.4005 42.2902 23.1728 41.9966 23.0372 41.861C22.9017 41.7255 22.6082 41.4984 22.1623 41.4984L19.1686 41.5C18.6705 41.5 18.3433 41.7543 18.1918 41.9051C18.041 42.0568 17.7876 42.3848 17.7876 42.8822V44.2619L17.7892 44.2643Z" fill="#4D00AE"></path><path d="M14.125 32.7109C12.2203 32.7109 10.6765 31.1667 10.6765 29.2616V6.78891C10.6765 4.88377 12.2203 3.3396 14.125 3.3396C16.0296 3.3396 17.5734 4.88377 17.5734 6.78891V29.2616C17.5734 31.1667 16.0296 32.7109 14.125 32.7109Z" fill="#4D00AE"></path><path d="M24.7815 32.7108C22.8769 32.7108 21.3331 31.1666 21.3331 29.2615V4.18417C21.3331 2.27903 22.8769 0.734863 24.7815 0.734863C26.6862 0.734863 28.23 2.27903 28.23 4.18417V29.2623C28.23 31.1674 26.6862 32.7116 24.7815 32.7116V32.7108Z" fill="#4D00AE"></path><path d="M3.46849 43.423C1.56382 43.423 0.0200424 41.8789 0.0200424 39.9737V15.5943C0.0200424 13.6892 1.56382 12.145 3.46849 12.145C5.37315 12.145 6.91694 13.6892 6.91694 15.5943V39.9737C6.91694 41.8789 5.37315 43.423 3.46849 43.423Z" fill="#4D00AE"></path></svg>