<svg xmlns="http://www.w3.org/2000/svg" xmlns:xlink="http://www.w3.org/1999/xlink" width="32.758" height="34.005" viewBox="0 0 32.758 34.005">
  <defs>
    <clipPath id="clip-path">
      <rect id="Rectangle_4" data-name="Rectangle 4" width="32.758" height="34.005"/>
    </clipPath>
  </defs>
  <g id="Group_6" data-name="Group 6" transform="translate(-0.379 0.332)">
    <g id="Group_5" data-name="Group 5" transform="translate(0.379 -0.332)" clip-path="url(#clip-path)">
      <path id="Path_17" data-name="Path 17" d="M31.989,15.312a.766.766,0,0,1,.769.769v1.535a.766.766,0,0,1-.769.769H30.134a14.213,14.213,0,0,1-2.049,5.823,13.239,13.239,0,0,1-4.349,4.349A14.237,14.237,0,0,1,17.913,30.6v1.855a.739.739,0,0,1-.222.544.75.75,0,0,1-.544.224H15.61A.75.75,0,0,1,15.066,33a.739.739,0,0,1-.222-.544V30.6a14.237,14.237,0,0,1-5.823-2.049,13.239,13.239,0,0,1-4.349-4.349,14.214,14.214,0,0,1-2.049-5.823H.769a.742.742,0,0,1-.544-.224A.742.742,0,0,1,0,17.615V16.08a.742.742,0,0,1,.224-.544.742.742,0,0,1,.544-.224H2.623A14.2,14.2,0,0,1,4.672,9.491,13.247,13.247,0,0,1,9.021,5.139a14.2,14.2,0,0,1,5.823-2.046V1.236A.761.761,0,0,1,15.61.47h1.537a.761.761,0,0,1,.766.766V3.093a14.2,14.2,0,0,1,5.823,2.046,13.247,13.247,0,0,1,4.349,4.352,14.2,14.2,0,0,1,2.049,5.821ZM17.913,27.47A10.773,10.773,0,0,0,27,18.383H24.311a.74.74,0,0,1-.542-.224.732.732,0,0,1-.224-.544V16.08a.732.732,0,0,1,.224-.544.74.74,0,0,1,.542-.224H27a10.767,10.767,0,0,0-9.086-9.084V8.914a.739.739,0,0,1-.222.544.75.75,0,0,1-.544.224H15.61a.75.75,0,0,1-.544-.224.739.739,0,0,1-.222-.544V6.228a10.767,10.767,0,0,0-9.086,9.084H8.446a.74.74,0,0,1,.542.224.732.732,0,0,1,.224.544v1.535a.732.732,0,0,1-.224.544.74.74,0,0,1-.542.224H5.758a10.773,10.773,0,0,0,9.086,9.086V24.781a.761.761,0,0,1,.766-.769h1.537a.761.761,0,0,1,.766.769Zm.514-10.621a2.078,2.078,0,1,0-.61,1.439A1.973,1.973,0,0,0,18.427,16.849Z" transform="translate(0 0.714)"/>
    </g>
  </g>
</svg>
