<?xml version="1.0" encoding="UTF-8"?>
<svg width="1061px" height="256px" viewBox="0 0 1061 256" version="1.1" xmlns="http://www.w3.org/2000/svg" xmlns:xlink="http://www.w3.org/1999/xlink">
    <title>Group 2</title>
    <g id="Page-1" stroke="none" stroke-width="1" fill="none" fill-rule="evenodd">
        <g id="Group-2" transform="translate(-0.000000, 0.299988)" fill-rule="nonzero">
            <g id="header_logo_cropped-copy">
                <path d="M246.399994,123.200012 C246.399994,191.300018 191.299988,246.400024 123.200012,246.400024 C55.100006,246.400024 0,191.300018 0,123.200012 C0,55.100006 55.100006,0 123.200012,0 C191.299988,0 246.399994,55.100006 246.399994,123.200012" id="Path" fill="#FAB608"></path>
                <g id="Group" transform="translate(19.899994, 62.600006)" fill="#000000">
                    <path d="M74.100006,7.10542736e-15 L58,7.10542736e-15 L58,33.399994 L58,45.899994 C51.200012,36.399994 43.600006,31.800018 33.300003,31.800018 C12.300003,31.800018 -7.10542736e-15,46.600006 -7.10542736e-15,71.300018 C-7.10542736e-15,95.5 13.600006,110.800018 32.5,110.800018 C44,110.800018 51.800003,106.700012 57.600006,97.200012 L57.200012,107.899994 L78.200012,107.899994 L78.200012,7.10542736e-15 L74.100006,7.10542736e-15 Z M39.900009,91.800018 C28.400009,91.800018 21.400009,84 21.400009,70.800018 C21.400009,57.200012 28.400009,49.399994 39.900009,49.399994 C51,49.399994 58.400009,57.200012 58.400009,70.800018 C58.400009,84 51.5,91.800018 39.900009,91.800018 Z" id="path1"></path>
                    <path d="M125.600006,110.700012 C101.300018,110.700012 85.100006,93.700012 85.100006,71.800018 C85.100006,50.300018 101.700012,32.899994 125.600006,32.899994 C149.5,32.899994 165.700012,49.5 165.700012,71.800018 C165.700012,93.700012 149.100006,110.700012 125.600006,110.700012 Z M125.200012,52.300018 C113.5,52.300018 106.200012,60 106.200012,71.700012 C106.200012,83.399994 113.5,91.100006 125.200012,91.100006 C136.899994,91.100006 144.200012,83.399994 144.200012,71.700012 C144.300018,60 137,52.300018 125.200012,52.300018 Z" id="path2"></path>
                    <path d="M183.100006,7.10542736e-15 C190,7.10542736e-15 195.300018,5.300018 195.300018,12.200012 C195.300018,19.100006 189.600006,24.800018 183.100006,24.800018 C176.200012,24.800018 170.899994,18.700012 170.899994,12.200012 C171,5.700012 176.200012,7.10542736e-15 183.100006,7.10542736e-15 Z M172.600006,36 L193.700012,36 L193.700012,108.100006 L172.600006,108.100006 L172.600006,36 Z" id="path3"></path>
                </g>
                <g id="g1" transform="translate(292.600006, 62.700012)">
                    <polygon id="path4" fill="#000000" points="-5.68434189e-14 0 63.600006 0 63.600006 19.399994 23.100006 19.399994 23.100006 41.700012 63.600006 41.700012 63.600006 61.100006 23.100006 61.100006 23.100006 107.700012 -5.68434189e-14 107.700012"></polygon>
                    <path d="M112.199982,110.600006 C87.899994,110.600006 71.699982,93.600006 71.699982,71.700012 C71.699982,50.200012 88.300018,32.799988 112.199982,32.799988 C136.100006,32.799988 152.300018,49.399994 152.300018,71.700012 C152.300018,93.600006 135.699982,110.600006 112.199982,110.600006 Z M111.800018,52.200012 C100.100006,52.200012 92.800018,59.899994 92.800018,71.600006 C92.800018,83.299988 100.100006,91 111.800018,91 C123.49997,91 130.800018,83.299988 130.800018,71.600006 C130.899994,59.899994 123.600006,52.200012 111.800018,52.200012 Z" id="path5" fill="#000000"></path>
                    <path d="M182.699982,73.299988 C182.699982,85 186.800018,91.100006 198.49997,91.100006 C210.199982,91.100006 214.300018,85 214.300018,73.299988 L214.300018,35.200012 L235.399994,35.200012 L235.399994,73.299988 C235.399994,98.399994 224.100006,110.600006 198.899994,110.600006 C172.99997,110.600006 161.99997,98.399994 161.99997,73.299988 L161.99997,35.200012 L182.699982,35.200012 L182.699982,73.299988 Z" id="path6" fill="#000000"></path>
                    <path d="M249.600006,35.200012 L270.300018,35.200012 L270.300018,46.5 C277.99997,37.200012 286.100006,32.700012 296.99997,32.700012 C308.300018,32.700012 315.600006,36.299988 320.100006,44 C322.899994,49.299988 322.899994,55.299988 322.899994,62.600006 C322.899994,63.399994 322.899994,64.200012 322.899994,65 L322.899994,107.100006 L301.800018,107.100006 L301.800018,71.399994 C301.800018,57.600006 300.600006,49.5 287.99997,49.5 C281.899994,49.5 277.100006,51.899994 273.800018,56.399994 C270.199982,61.299988 270.199982,66.100006 270.199982,72.200012 C270.199982,73 270.199982,73.799988 270.199982,75 L270.199982,106.600006 L249.100006,106.600006 L249.600006,35.200012 L249.600006,35.200012 Z" id="path7" fill="#000000"></path>
                    <path d="M476.800018,107.700012 L477.199982,97.200012 C471.49997,106.5 463.800018,110.600006 452.49997,110.600006 C433.899994,110.600006 420.49997,95.600006 420.49997,71.700012 C420.49997,47.399994 432.699982,33.200012 453.300018,33.200012 C463.800018,33.200012 471.899994,38.100006 477.600006,47.399994 L477.600006,35.700012 L497.49997,35.700012 L497.49997,107.799988 C497.49997,107.700012 476.800018,107.700012 476.800018,107.700012 Z M459.800018,50.200012 C448.49997,50.200012 441.600006,58.299988 441.600006,71.299988 C441.600006,84.299988 448.49997,92 459.800018,92 C471.100006,92 477.99997,84.299988 477.99997,71.299988 C478.100006,57.899994 470.800018,50.200012 459.800018,50.200012 Z" id="path8" fill="#000000"></path>
                    <polygon id="path9" fill="#000000" points="522.600006 51.799988 512.49997 51.799988 512.49997 35.200012 522.600006 35.200012 522.600006 11.299988 543.699982 11.299988 543.699982 35.200012 553.800018 35.200012 553.800018 51.799988 543.699982 51.799988 543.699982 107.700012 522.600006 107.700012"></polygon>
                    <path d="M577.700043,0 C584.599945,0 589.899994,5.299988 589.899994,12.200012 C589.899994,19.100006 584.200043,24.799988 577.700043,24.799988 C570.800018,24.799988 565.49997,18.700012 565.49997,12.200012 C565.600006,5.700012 570.800018,0 577.700043,0 Z" id="path10" fill="#FAB608"></path>
                    <path d="M641.300018,110.600006 C616.99997,110.600006 600.800018,93.600006 600.800018,71.700012 C600.800018,50.200012 617.399994,32.799988 641.300018,32.799988 C665.200043,32.799988 681.399994,49.399994 681.399994,71.700012 C681.800018,93.600006 665.200043,110.600006 641.300018,110.600006 Z M641.300018,52.200012 C629.599945,52.200012 622.300018,59.899994 622.300018,71.600006 C622.300018,83.299988 629.599945,91 641.300018,91 C652.99997,91 660.300018,83.299988 660.300018,71.600006 C660.399994,59.899994 653.099945,52.200012 641.300018,52.200012 Z" id="path11" fill="#000000"></path>
                    <path d="M694.399994,35.200012 L715.099945,35.200012 L715.099945,46.5 C722.800018,37.200012 730.899994,32.700012 741.800018,32.700012 C753.099945,32.700012 760.399994,36.299988 764.899994,44 C767.700043,49.299988 767.700043,55.299988 767.700043,62.600006 C767.700043,63.399994 767.700043,64.200012 767.700043,65 L767.700043,107.100006 L746.599945,107.100006 L746.599945,71.399994 C746.599945,57.600006 745.399994,49.5 732.800018,49.5 C726.700043,49.5 721.899994,51.899994 718.599945,56.399994 C714.99997,61.299988 714.99997,66.100006 714.99997,72.200012 C714.99997,73 714.99997,73.799988 714.99997,75 L714.99997,106.600006 L693.899994,106.600006 L694.399994,35.200012 L694.399994,35.200012 Z" id="path12" fill="#000000"></path>
                    <path d="M405.99997,0 L390.199982,0 L390.199982,34.399994 L390.199982,46.700012 C383.49997,37.399994 375.99997,32.799988 365.899994,32.799988 C345.199982,32.799988 333.100006,47.399994 333.100006,71.700012 C333.100006,95.600006 346.49997,110.600006 365.100006,110.600006 C376.399994,110.600006 384.100006,106.5 389.800018,97.200012 L389.399994,107.700012 L410.100006,107.700012 L410.100006,0 L405.99997,0 Z M372.300018,91.899994 C360.99997,91.899994 354.100006,84.200012 354.100006,71.200012 C354.100006,57.799988 360.99997,50.100006 372.300018,50.100006 C383.199982,50.100006 390.49997,57.799988 390.49997,71.200012 C390.600006,84.200012 383.699982,91.899994 372.300018,91.899994 Z" id="path13" fill="#000000"></path>
                </g>
                <polygon id="path14" fill="#000000" points="859.799988 97.900024 880.900024 97.900024 880.900024 170 859.799988 170"></polygon>
            </g>
            <g id="Back-to-main-site-Copy" transform="translate(585.320288, 216.328930)" fill="#707070">
                <path d="M5.3859375,19.3210937 L11.678125,19.3210937 C13.9927083,19.3210937 16.0321615,18.9960938 17.7964844,18.3460937 C19.5608073,17.6960937 20.9476562,16.741276 21.9570312,15.4816406 C22.9664063,14.2220052 23.4710937,12.7041667 23.4710937,10.928125 C23.4710937,8.928125 22.9664063,7.27578125 21.9570312,5.97109375 C20.9476562,4.66640625 19.5608073,3.69023437 17.7964844,3.04257812 C16.0321615,2.39492187 13.9927083,2.07109375 11.678125,2.07109375 L0,2.07109375 L0,37.0710937 L12.3929687,37.0710937 C15.0164062,37.0710937 17.305599,36.7210937 19.2605469,36.0210937 C21.2154948,35.3210937 22.7393229,34.2377604 23.8320312,32.7710937 C24.9247396,31.3044271 25.4710937,29.4140625 25.4710937,27.1 C25.4710937,25.3854167 25.1104167,23.9126302 24.3890625,22.6816406 C23.6677083,21.450651 22.6903646,20.4423177 21.4570312,19.6566406 C20.2236979,18.8709635 18.8296875,18.291276 17.275,17.9175781 C15.7203125,17.5438802 14.0929688,17.3570312 12.3929687,17.3570312 L5.3859375,17.3570312 L5.3859375,21.2710937 L11.75,21.2710937 C12.66875,21.2710937 13.5126302,21.366276 14.2816406,21.5566406 C15.050651,21.7470052 15.7233073,22.0434896 16.2996094,22.4460937 C16.8759115,22.8486979 17.3223958,23.3630208 17.6390625,23.9890625 C17.9557292,24.6151042 18.1140625,25.3544271 18.1140625,26.2070312 C18.1140625,27.4257812 17.8355469,28.4138021 17.2785156,29.1710937 C16.7214844,29.9283854 15.9643229,30.4878906 15.0070312,30.8496094 C14.0497396,31.2113281 12.9640625,31.3921875 11.75,31.3921875 L7.14296875,31.3921875 L7.14296875,7.75 L11.0359375,7.75 C12.5880208,7.75 13.8223958,8.10117188 14.7390625,8.80351562 C15.6557292,9.50585937 16.1140625,10.5260417 16.1140625,11.8640625 C16.1140625,12.7494792 15.9045573,13.5041667 15.4855469,14.128125 C15.0665365,14.7520833 14.4760417,15.2283854 13.7140625,15.5570312 C12.9520833,15.8856771 12.059375,16.05 11.0359375,16.05 L5.3859375,16.05 L5.3859375,19.3210937 Z" id="Path"></path>
                <path d="M36.3930054,29.1429687 L54.8930054,29.1429687 L54.0359741,23.4710937 L37.2500366,23.4710937 L36.3930054,29.1429687 Z M45.5430054,13.4 L50.8140991,25.5929687 L50.7211304,27.3851562 L55.2211304,37.0710937 L63.2930054,37.0710937 L45.5430054,0 L27.7930054,37.0710937 L35.8640991,37.0710937 L40.4640991,27.0640625 L40.3289429,25.478125 L45.5430054,13.4 Z" id="Shape"></path>
                <path d="M72.8715698,19.5710937 C72.8715698,17.2377604 73.3942261,15.2247396 74.4395386,13.5320312 C75.4848511,11.8393229 76.8586792,10.5309896 78.5610229,9.60703125 C80.2633667,8.68307292 82.1215698,8.22109375 84.1356323,8.22109375 C85.802299,8.22109375 87.2879761,8.43424479 88.5926636,8.86054687 C89.8973511,9.28684896 91.0700073,9.86666667 92.1106323,10.6 C93.1512573,11.3333333 94.0572469,12.1450521 94.8286011,13.0351562 L94.8286011,4.9921875 C93.4046427,3.83541667 91.8509969,2.94036458 90.1676636,2.30703125 C88.4843302,1.67369792 86.3593302,1.35703125 83.7926636,1.35703125 C81.1025594,1.35703125 78.6170125,1.79505208 76.3360229,2.67109375 C74.0550334,3.54713542 72.0787313,4.79713542 70.4071167,6.42109375 C68.7355021,8.04505208 67.4355021,9.97122396 66.5071167,12.1996094 C65.5787313,14.4279948 65.1145386,16.8851562 65.1145386,19.5710937 C65.1145386,22.2570312 65.5787313,24.7141927 66.5071167,26.9425781 C67.4355021,29.1709635 68.7355021,31.0971354 70.4071167,32.7210937 C72.0787313,34.3450521 74.0550334,35.5950521 76.3360229,36.4710937 C78.6170125,37.3471354 81.1025594,37.7851562 83.7926636,37.7851562 C86.3593302,37.7851562 88.4843302,37.464974 90.1676636,36.8246094 C91.8509969,36.1842448 93.4046427,35.2927083 94.8286011,34.15 L94.8286011,26.1070312 C94.0572469,26.9971354 93.1512573,27.8053385 92.1106323,28.5316406 C91.0700073,29.2579427 89.8973511,29.8377604 88.5926636,30.2710937 C87.2879761,30.7044271 85.802299,30.9210937 84.1356323,30.9210937 C82.1215698,30.9210937 80.2633667,30.4591146 78.5610229,29.5351562 C76.8586792,28.6111979 75.4848511,27.2980469 74.4395386,25.5957031 C73.3942261,23.8933594 72.8715698,21.8851562 72.8715698,19.5710937 Z" id="Path"></path>
                <path d="M101.900275,2.07109375 L101.900275,37.0710937 L109.257306,37.0710937 L109.257306,2.07109375 L101.900275,2.07109375 Z M121.721368,2.07109375 L107.164337,18.678125 L122.257306,37.0710937 L130.957306,37.0710937 L115.700275,18.4710937 L130.207306,2.07109375 L121.721368,2.07109375 Z" id="Shape"></path>
                <polygon id="Path" points="146.279034 8.53515625 155.707159 8.53515625 155.707159 37.0710937 162.850128 37.0710937 162.850128 8.53515625 172.279034 8.53515625 172.279034 2.07109375 146.279034 2.07109375"></polygon>
                <path d="M181.914661,19.5710937 C181.914661,17.3236979 182.378984,15.3345052 183.307629,13.6035156 C184.236275,11.872526 185.521952,10.5105469 187.164661,9.51757812 C188.807369,8.52460937 190.702681,8.028125 192.850598,8.028125 C195.059973,8.028125 196.977812,8.52460937 198.604114,9.51757812 C200.230416,10.5105469 201.500598,11.872526 202.414661,13.6035156 C203.328723,15.3345052 203.785754,17.3236979 203.785754,19.5710937 C203.785754,21.8044271 203.321562,23.7901042 202.393176,25.528125 C201.464791,27.2661458 200.183931,28.6316406 198.550598,29.6246094 C196.917265,30.6175781 195.017265,31.1140625 192.850598,31.1140625 C190.702681,31.1140625 188.807369,30.6175781 187.164661,29.6246094 C185.521952,28.6316406 184.236275,27.2661458 183.307629,25.528125 C182.378984,23.7901042 181.914661,21.8044271 181.914661,19.5710937 Z M174.350598,19.5710937 C174.350598,22.2184896 174.806458,24.6671875 175.718176,26.9171875 C176.629895,29.1671875 177.9144,31.1184896 179.571692,32.7710937 C181.228984,34.4236979 183.187317,35.7083333 185.446692,36.625 C187.706067,37.5416667 190.174036,38 192.850598,38 C195.545911,38 198.018567,37.5416667 200.268567,36.625 C202.518567,35.7083333 204.472083,34.4236979 206.129114,32.7710937 C207.786145,31.1184896 209.07065,29.1671875 209.982629,26.9171875 C210.894609,24.6671875 211.350598,22.2184896 211.350598,19.5710937 C211.350598,16.9044271 210.891093,14.4615885 209.972083,12.2425781 C209.053072,10.0235677 207.75776,8.10208333 206.086145,6.478125 C204.41453,4.85416667 202.457369,3.59466146 200.214661,2.69960937 C197.971952,1.80455729 195.517265,1.35703125 192.850598,1.35703125 C190.231327,1.35703125 187.79552,1.80455729 185.543176,2.69960937 C183.290833,3.59466146 181.328984,4.85416667 179.657629,6.478125 C177.986275,8.10208333 176.683931,10.0235677 175.750598,12.2425781 C174.817265,14.4615885 174.350598,16.9044271 174.350598,19.5710937 Z" id="Shape"></path>
                <polygon id="Path" points="239.643164 17.428125 249.779102 33.8210937 259.915039 17.428125 262.17207 37.0710937 269.636133 37.0710937 264.42207 0.32109375 249.779102 22.9070312 235.136133 0.32109375 229.92207 37.0710937 237.386133 37.0710937"></polygon>
                <path d="M280.057898,29.1429687 L298.557898,29.1429687 L297.700867,23.4710937 L280.914929,23.4710937 L280.057898,29.1429687 Z M289.207898,13.4 L294.478992,25.5929687 L294.386023,27.3851562 L298.886023,37.0710937 L306.957898,37.0710937 L289.207898,0 L271.457898,37.0710937 L279.528992,37.0710937 L284.128992,27.0640625 L283.993835,25.478125 L289.207898,13.4 Z" id="Shape"></path>
                <polygon id="Path" points="310.779431 2.07109375 310.779431 37.0710937 318.029431 37.0710937 318.029431 2.07109375"></polygon>
                <polygon id="Path" points="350.493152 2.07109375 350.493152 23.7492187 325.600964 0.32109375 325.600964 37.0710937 332.529089 37.0710937 332.529089 15.3929687 357.422058 38.8210937 357.422058 2.07109375"></polygon>
                <path d="M383.050879,25.3140625 L377.936816,28.9421875 C378.717546,30.5755208 379.791243,32.0851562 381.15791,33.4710937 C382.524577,34.8570312 384.130566,35.9583333 385.975879,36.775 C387.821191,37.5916667 389.822493,38 391.979785,38 C393.551139,38 395.067676,37.7595052 396.529395,37.2785156 C397.991113,36.797526 399.30179,36.1022135 400.461426,35.1925781 C401.621061,34.2829427 402.53903,33.1579427 403.215332,31.8175781 C403.891634,30.4772135 404.229785,28.9546875 404.229785,27.25 C404.229785,25.75 403.982129,24.4320312 403.486816,23.2960937 C402.991504,22.1601562 402.323535,21.1660156 401.48291,20.3136719 C400.642285,19.4613281 399.691113,18.7363281 398.629395,18.1386719 C397.567676,17.5410156 396.47015,17.0398437 395.336816,16.6351562 C393.5889,16.0210937 392.134082,15.4270833 390.972363,14.853125 C389.810645,14.2791667 388.940462,13.6625 388.361816,13.003125 C387.783171,12.34375 387.493848,11.5877604 387.493848,10.7351562 C387.493848,9.84505208 387.84502,9.08085937 388.547363,8.44257812 C389.249707,7.80429687 390.30791,7.48515625 391.721973,7.48515625 C392.774577,7.48515625 393.715202,7.68763021 394.543848,8.09257812 C395.372493,8.49752604 396.116504,9.04166667 396.775879,9.725 C397.435254,10.4083333 398.002962,11.1760417 398.479004,12.028125 L404.05791,8.9 C403.462598,7.68072917 402.618587,6.49492187 401.525879,5.34257812 C400.433171,4.19023437 399.078483,3.23789062 397.461816,2.48554687 C395.84515,1.73320312 393.929525,1.35703125 391.714941,1.35703125 C389.548275,1.35703125 387.591113,1.75221354 385.843457,2.54257812 C384.095801,3.33294271 382.710124,4.45429687 381.686426,5.90664062 C380.662728,7.35898437 380.150879,9.0734375 380.150879,11.05 C380.150879,12.7213542 380.466374,14.1498698 381.097363,15.3355469 C381.728353,16.521224 382.530697,17.521224 383.504395,18.3355469 C384.478092,19.1498698 385.501921,19.8165365 386.575879,20.3355469 C387.649837,20.8545573 388.612858,21.2710937 389.464941,21.5851562 C391.040983,22.1664062 392.367155,22.7165365 393.443457,23.2355469 C394.519759,23.7545573 395.335254,24.3520833 395.889941,25.028125 C396.444629,25.7041667 396.721973,26.5898437 396.721973,27.6851562 C396.721973,28.9283854 396.269629,29.9201823 395.364941,30.6605469 C394.460254,31.4009115 393.2889,31.7710937 391.850879,31.7710937 C390.608171,31.7710937 389.454655,31.5067708 388.390332,30.978125 C387.326009,30.4494792 386.355697,29.6983073 385.479395,28.7246094 C384.603092,27.7509115 383.793587,26.6140625 383.050879,25.3140625 Z" id="Path"></path>
                <polygon id="Path" points="410.051099 2.07109375 410.051099 37.0710937 417.301099 37.0710937 417.301099 2.07109375"></polygon>
                <polygon id="Path" points="421.372632 8.53515625 430.800757 8.53515625 430.800757 37.0710937 437.943726 37.0710937 437.943726 8.53515625 447.372632 8.53515625 447.372632 2.07109375 421.372632 2.07109375"></polygon>
                <path d="M456.044196,37.0710937 L473.694196,37.0710937 L473.694196,31.0351562 L456.044196,31.0351562 L456.044196,37.0710937 Z M456.044196,8.10703125 L473.694196,8.10703125 L473.694196,2.07109375 L456.044196,2.07109375 L456.044196,8.10703125 Z M456.044196,21.4640625 L472.694196,21.4640625 L472.694196,15.5351562 L456.044196,15.5351562 L456.044196,21.4640625 Z M451.444196,2.07109375 L451.444196,37.0710937 L458.372321,37.0710937 L458.372321,2.07109375 L451.444196,2.07109375 Z" id="Shape"></path>
            </g>
            <g id="right-arrow-copy" transform="translate(548.431122, 235.900024) rotate(-180.000000) translate(-548.431122, -235.900024) translate(538.150024, 218.400024)" fill="#707070">
                <path d="M20.0039024,16.1342997 L4.42845993,0.559141796 C4.06821896,0.198616271 3.58732856,0 3.0745685,0 C2.56180844,0 2.08091804,0.198616271 1.72067707,0.559141796 L0.573653873,1.70588044 C-0.172722173,2.45311014 -0.172722173,3.66757181 0.573653873,4.4136633 L13.6527345,17.492744 L0.559141796,30.5863367 C0.198900822,30.9468622 0,31.4274681 0,31.9399436 C0,32.4529882 0.198900822,32.933594 0.559141796,33.2944041 L1.70616499,34.4408582 C2.06669051,34.8013837 2.54729636,35 3.06005642,35 C3.57281648,35 4.05370688,34.8013837 4.41394785,34.4408582 L20.0039024,18.8514728 C20.364997,18.489809 20.5633288,18.0069268 20.5621954,17.4935976 C20.5633288,16.9782766 20.364997,16.4956789 20.0039024,16.1342997 Z" id="Path"></path>
            </g>
        </g>
    </g>
</svg>