<?xml version="1.0" encoding="UTF-8"?>
<!-- Generated by Pixelmator Pro 3.6.9 -->
<svg width="1061" height="256" viewBox="0 0 1061 256" xmlns="http://www.w3.org/2000/svg">
    <g id="Page-1">
        <g id="Group-2">
            <g id="Back-to-main-site-Copy">
                <path id="Path" fill="#707070" stroke="none" d="M 590.706238 235.950012 L 596.998413 235.950012 C 599.312988 235.950012 601.352478 235.625015 603.11676 234.975006 C 604.881104 234.325012 606.267944 233.370193 607.277344 232.110565 C 608.286682 230.850922 608.791382 229.333084 608.791382 227.557037 C 608.791382 225.557037 608.286682 223.904694 607.277344 222.600006 C 606.267944 221.295319 604.881104 220.319153 603.11676 219.671494 C 601.352478 219.023834 599.312988 218.700012 596.998413 218.700012 L 585.320313 218.700012 L 585.320313 253.700012 L 597.713257 253.700012 C 600.33667 253.700012 602.625916 253.350006 604.580811 252.650009 C 606.535767 251.950012 608.059631 250.866684 609.152344 249.400009 C 610.245056 247.93335 610.791382 246.042984 610.791382 243.728912 C 610.791382 242.014328 610.430725 240.54155 609.709351 239.310562 C 608.987976 238.079575 608.010681 237.071228 606.777344 236.285553 C 605.544006 235.499878 604.149963 234.920197 602.595276 234.546494 C 601.040588 234.172791 599.413269 233.985947 597.713257 233.985947 L 590.706238 233.985947 L 590.706238 237.900009 L 597.070313 237.900009 C 597.989014 237.900009 598.832947 237.995193 599.601929 238.185562 C 600.370911 238.375916 601.043579 238.672409 601.619873 239.075012 C 602.196228 239.477615 602.6427 239.991943 602.959351 240.617981 C 603.276001 241.244019 603.434326 241.983337 603.434326 242.835953 C 603.434326 244.054703 603.155823 245.042725 602.598816 245.800018 C 602.041748 246.557297 601.284607 247.116806 600.327332 247.478531 C 599.370056 247.84024 598.284363 248.021103 597.070313 248.021103 L 592.463257 248.021103 L 592.463257 224.378922 L 596.356201 224.378922 C 597.908325 224.378922 599.1427 224.730087 600.059326 225.432434 C 600.976013 226.134781 601.434326 227.154968 601.434326 228.492981 C 601.434326 229.378403 601.224854 230.133087 600.805847 230.75705 C 600.386841 231.380997 599.796326 231.8573 599.034363 232.185944 C 598.2724 232.514587 597.379639 232.678925 596.356201 232.678925 L 590.706238 232.678925 L 590.706238 235.950012 Z"/>
                <path id="Shape" fill="#707070" stroke="none" d="M 621.713318 245.771881 L 640.213318 245.771881 L 639.356262 240.100006 L 622.570313 240.100006 L 621.713318 245.771881 Z M 630.863281 230.028915 L 636.134399 242.221893 L 636.041443 244.014069 L 640.541443 253.700012 L 648.613281 253.700012 L 630.863281 216.628922 L 613.113281 253.700012 L 621.184387 253.700012 L 625.784363 243.692978 L 625.649231 242.10704 L 630.863281 230.028915 Z"/>
                <path id="path1" fill="#707070" stroke="none" d="M 658.191833 236.200012 C 658.191833 233.866684 658.714539 231.853653 659.759827 230.16095 C 660.805115 228.468246 662.178955 227.159912 663.881287 226.235947 C 665.583679 225.311996 667.441833 224.850006 669.455933 224.850006 C 671.122559 224.850006 672.608276 225.063171 673.912964 225.489471 C 675.217651 225.915771 676.39032 226.49559 677.430908 227.228912 C 678.471558 227.96225 679.377502 228.773972 680.148865 229.664078 L 680.148865 221.621109 C 678.724915 220.46434 677.171265 219.569275 675.487976 218.935944 C 673.804626 218.302612 671.679626 217.985947 669.112976 217.985947 C 666.422852 217.985947 663.937317 218.423965 661.656311 219.300018 C 659.375305 220.176056 657.398987 221.426056 655.727417 223.050018 C 654.055786 224.673965 652.755798 226.600143 651.827393 228.828522 C 650.898987 231.056915 650.434814 233.514069 650.434814 236.200012 C 650.434814 238.885956 650.898987 241.343109 651.827393 243.571503 C 652.755798 245.799881 654.055786 247.726059 655.727417 249.350006 C 657.398987 250.973969 659.375305 252.223969 661.656311 253.100006 C 663.937317 253.976059 666.422852 254.414078 669.112976 254.414078 C 671.679626 254.414078 673.804626 254.093887 675.487976 253.453522 C 677.171265 252.813171 678.724915 251.921631 680.148865 250.778915 L 680.148865 242.735947 C 679.377502 243.626053 678.471558 244.43425 677.430908 245.160553 C 676.39032 245.886856 675.217651 246.466675 673.912964 246.900009 C 672.608276 247.333344 671.122559 247.550018 669.455933 247.550018 C 667.441833 247.550018 665.583679 247.088028 663.881287 246.164078 C 662.178955 245.240112 660.805115 243.926971 659.759827 242.224625 C 658.714539 240.522278 658.191833 238.514069 658.191833 236.200012 Z"/>
                <path id="path2" fill="#707070" stroke="none" d="M 687.220581 218.700012 L 687.220581 253.700012 L 694.577576 253.700012 L 694.577576 218.700012 L 687.220581 218.700012 Z M 707.041626 218.700012 L 692.484619 235.307037 L 707.577576 253.700012 L 716.277588 253.700012 L 701.020569 235.100006 L 715.527588 218.700012 L 707.041626 218.700012 Z"/>
                <path id="path3" fill="#707070" stroke="none" d="M 731.599304 225.164078 L 741.027466 225.164078 L 741.027466 253.700012 L 748.17041 253.700012 L 748.17041 225.164078 L 757.599304 225.164078 L 757.599304 218.700012 L 731.599304 218.700012 Z"/>
                <path id="path4" fill="#707070" stroke="none" d="M 767.234924 236.200012 C 767.234924 233.952621 767.69928 231.963425 768.62793 230.232437 C 769.55658 228.50145 770.842224 227.139465 772.484924 226.1465 C 774.127686 225.153534 776.022949 224.657043 778.170898 224.657043 C 780.380249 224.657043 782.298096 225.153534 783.924377 226.1465 C 785.55072 227.139465 786.820862 228.50145 787.734924 230.232437 C 788.648987 231.963425 789.106018 233.952621 789.106018 236.200012 C 789.106018 238.43335 788.641846 240.419022 787.71344 242.157043 C 786.785095 243.895065 785.504211 245.260559 783.870911 246.253525 C 782.237549 247.24649 780.337524 247.742981 778.170898 247.742981 C 776.022949 247.742981 774.127686 247.24649 772.484924 246.253525 C 770.842224 245.260559 769.55658 243.895065 768.62793 242.157043 C 767.69928 240.419022 767.234924 238.43335 767.234924 236.200012 Z M 759.670898 236.200012 C 759.670898 238.847412 760.12677 241.296112 761.038452 243.546112 C 761.950195 245.796112 763.23468 247.747406 764.891968 249.400009 C 766.549255 251.052612 768.507629 252.33725 770.766968 253.253922 C 773.026367 254.170593 775.494324 254.628922 778.170898 254.628922 C 780.866211 254.628922 783.338867 254.170593 785.588867 253.253922 C 787.838867 252.33725 789.792358 251.052612 791.449402 249.400009 C 793.106445 247.747406 794.39093 245.796112 795.302917 243.546112 C 796.214905 241.296112 796.670898 238.847412 796.670898 236.200012 C 796.670898 233.53334 796.211365 231.090515 795.292358 228.87149 C 794.373352 226.652481 793.078064 224.731003 791.406433 223.10704 C 789.734802 221.483093 787.777649 220.223572 785.534973 219.328522 C 783.292236 218.433472 780.837524 217.985947 778.170898 217.985947 C 775.551636 217.985947 773.115784 218.433472 770.863464 219.328522 C 768.611145 220.223572 766.649292 221.483093 764.977905 223.10704 C 763.30658 224.731003 762.004211 226.652481 761.070862 228.87149 C 760.137573 231.090515 759.670898 233.53334 759.670898 236.200012 Z"/>
                <path id="path5" fill="#707070" stroke="none" d="M 824.96344 234.057037 L 835.099365 250.450012 L 845.235352 234.057037 L 847.492371 253.700012 L 854.956421 253.700012 L 849.742371 216.950012 L 835.099365 239.53595 L 820.456421 216.950012 L 815.242371 253.700012 L 822.706421 253.700012 Z"/>
                <path id="path6" fill="#707070" stroke="none" d="M 865.378174 245.771881 L 883.878174 245.771881 L 883.021179 240.100006 L 866.235229 240.100006 L 865.378174 245.771881 Z M 874.528198 230.028915 L 879.799316 242.221893 L 879.706299 244.014069 L 884.206299 253.700012 L 892.278198 253.700012 L 874.528198 216.628922 L 856.778198 253.700012 L 864.849304 253.700012 L 869.44928 243.692978 L 869.314148 242.10704 L 874.528198 230.028915 Z"/>
                <path id="path7" fill="#707070" stroke="none" d="M 896.099731 218.700012 L 896.099731 253.700012 L 903.349731 253.700012 L 903.349731 218.700012 Z"/>
                <path id="path8" fill="#707070" stroke="none" d="M 935.813477 218.700012 L 935.813477 240.378143 L 910.921265 216.950012 L 910.921265 253.700012 L 917.849365 253.700012 L 917.849365 232.021881 L 942.742371 255.450012 L 942.742371 218.700012 Z"/>
                <path id="path9" fill="#707070" stroke="none" d="M 968.371155 241.942978 L 963.257141 245.571106 C 964.037842 247.204437 965.111511 248.714081 966.47821 250.100006 C 967.844849 251.485947 969.450867 252.58725 971.296204 253.403915 C 973.141479 254.220581 975.142761 254.628922 977.30011 254.628922 C 978.87146 254.628922 980.388 254.388428 981.84967 253.90744 C 983.311401 253.426453 984.62207 252.73114 985.781738 251.821503 C 986.941345 250.911865 987.859314 249.786865 988.535645 248.446503 C 989.211914 247.106125 989.55011 245.583603 989.55011 243.878922 C 989.55011 242.378922 989.302429 241.060944 988.807129 239.925018 C 988.311829 238.789078 987.64386 237.794937 986.803223 236.942596 C 985.962585 236.09024 985.011414 235.36525 983.949707 234.767593 C 982.888 234.169937 981.790466 233.668762 980.657104 233.264069 C 978.90918 232.650009 977.454407 232.056 976.292664 231.48204 C 975.13092 230.908081 974.260742 230.291412 973.682129 229.63205 C 973.103455 228.972672 972.814148 228.216675 972.814148 227.364075 C 972.814148 226.473969 973.165344 225.709778 973.867676 225.071503 C 974.570007 224.433212 975.628235 224.114075 977.042297 224.114075 C 978.094849 224.114075 979.035522 224.316544 979.864136 224.721497 C 980.69281 225.12645 981.436829 225.670593 982.096191 226.353912 C 982.755554 227.037247 983.323242 227.804962 983.799316 228.657043 L 989.378235 225.528915 C 988.782898 224.309647 987.938904 223.12384 986.846191 221.971497 C 985.753479 220.819153 984.398804 219.866806 982.782104 219.114471 C 981.165466 218.362122 979.249817 217.985947 977.035217 217.985947 C 974.868591 217.985947 972.911438 218.381134 971.163757 219.171494 C 969.416077 219.961853 968.030396 221.083221 967.006714 222.535553 C 965.983032 223.9879 965.471191 225.702362 965.471191 227.678925 C 965.471191 229.350281 965.786682 230.778793 966.417664 231.964462 C 967.048645 233.150146 967.851013 234.150146 968.824707 234.964462 C 969.798401 235.778793 970.822205 236.44545 971.896179 236.964462 C 972.970154 237.483475 973.933167 237.900009 974.785217 238.214081 C 976.361267 238.795319 977.687439 239.345459 978.763733 239.864471 C 979.840027 240.383469 980.655579 240.981003 981.210266 241.657043 C 981.764954 242.333084 982.042297 243.218765 982.042297 244.314072 C 982.042297 245.557297 981.589905 246.549103 980.685242 247.289459 C 979.780579 248.029831 978.609192 248.400009 977.171204 248.400009 C 975.928467 248.400009 974.774963 248.135696 973.710632 247.60704 C 972.646301 247.0784 971.675964 246.327225 970.799683 245.353531 C 969.923401 244.379822 969.113892 243.242981 968.371155 241.942978 Z"/>
                <path id="path10" fill="#707070" stroke="none" d="M 995.371399 218.700012 L 995.371399 253.700012 L 1002.621399 253.700012 L 1002.621399 218.700012 Z"/>
                <path id="path11" fill="#707070" stroke="none" d="M 1006.692932 225.164078 L 1016.121033 225.164078 L 1016.121033 253.700012 L 1023.264038 253.700012 L 1023.264038 225.164078 L 1032.692871 225.164078 L 1032.692871 218.700012 L 1006.692932 218.700012 Z"/>
                <path id="path12" fill="#707070" stroke="none" d="M 1041.364502 253.700012 L 1059.014526 253.700012 L 1059.014526 247.664078 L 1041.364502 247.664078 L 1041.364502 253.700012 Z M 1041.364502 224.735947 L 1059.014526 224.735947 L 1059.014526 218.700012 L 1041.364502 218.700012 L 1041.364502 224.735947 Z M 1041.364502 238.092987 L 1058.014526 238.092987 L 1058.014526 232.164078 L 1041.364502 232.164078 L 1041.364502 238.092987 Z M 1036.764526 218.700012 L 1036.764526 253.700012 L 1043.692627 253.700012 L 1043.692627 218.700012 L 1036.764526 218.700012 Z"/>
            </g>
            <g id="right-arrow-copy">
                <path id="path13" fill="#707070" stroke="none" d="M 538.708313 237.565704 L 554.283752 253.140869 C 554.643982 253.501389 555.124878 253.700012 555.637634 253.700012 C 556.150391 253.700012 556.631287 253.501389 556.991516 253.140869 L 558.13855 251.994125 C 558.884949 251.246902 558.884949 250.03244 558.13855 249.286346 L 545.059509 236.207275 L 558.153076 223.113678 C 558.513306 222.753143 558.712219 222.272552 558.712219 221.760071 C 558.712219 221.247025 558.513306 220.766418 558.153076 220.405609 L 557.006042 219.259155 C 556.645508 218.898621 556.164917 218.700012 555.652161 218.700012 C 555.139404 218.700012 554.658508 218.898621 554.298279 219.259155 L 538.708313 234.848541 C 538.347229 235.210205 538.148865 235.693085 538.150024 236.206421 C 538.148865 236.721741 538.347229 237.20433 538.708313 237.565704 Z"/>
            </g>
        </g>
    </g>
    <g id="Group-copy">
        <path id="path14" fill="#fab608" stroke="none" d="M 246.399994 128.5 C 246.399994 196.600006 191.299988 251.700012 123.200012 251.700012 C 55.100006 251.700012 0 196.600006 0 128.5 C 0 60.399994 55.100006 5.299988 123.200012 5.299988 C 191.299988 5.299988 246.399994 60.399994 246.399994 128.5"/>
        <g id="Group">
            <path id="path15" fill="#000000" stroke="none" d="M 94 67.899994 L 77.899994 67.899994 L 77.899994 101.299988 L 77.899994 113.799988 C 71.100006 104.299988 63.5 99.700012 53.199997 99.700012 C 32.199997 99.700012 19.899994 114.5 19.899994 139.200012 C 19.899994 163.399994 33.5 178.700012 52.399994 178.700012 C 63.899994 178.700012 71.699997 174.600006 77.5 165.100006 L 77.100006 175.799988 C 77.100006 175.799988 98.100006 175.799988 98.100006 175.799988 L 98.100006 67.899994 L 94 67.899994 Z M 59.800003 159.700012 C 48.300003 159.700012 41.300003 151.899994 41.300003 138.700012 C 41.300003 125.100006 48.300003 117.299988 59.800003 117.299988 C 70.899994 117.299988 78.300003 125.100006 78.300003 138.700012 C 78.300003 151.899994 71.399994 159.700012 59.800003 159.700012 Z"/>
            <path id="path16" fill="#000000" stroke="none" d="M 145.5 178.600006 C 121.200012 178.600006 105 161.600006 105 139.700012 C 105 118.200012 121.600006 100.799988 145.5 100.799988 C 169.399994 100.799988 185.600006 117.399994 185.600006 139.700012 C 185.600006 161.600006 169 178.600006 145.5 178.600006 Z M 145.100006 120.200012 C 133.399994 120.200012 126.100006 127.899994 126.100006 139.600006 C 126.100006 151.299988 133.399994 159 145.100006 159 C 156.799988 159 164.100006 151.299988 164.100006 139.600006 C 164.200012 127.899994 156.899994 120.200012 145.100006 120.200012 Z"/>
            <path id="path17" fill="#000000" stroke="none" d="M 203 67.899994 C 209.899994 67.899994 215.200012 73.200012 215.200012 80.100006 C 215.200012 87 209.5 92.700012 203 92.700012 C 196.100006 92.700012 190.799988 86.600006 190.799988 80.100006 C 190.899994 73.600006 196.100006 67.899994 203 67.899994 Z M 192.5 103.899994 L 213.600006 103.899994 L 213.600006 176 L 192.5 176 L 192.5 103.899994 Z"/>
        </g>
        <text id="text1" xml:space="preserve" x="235" y="65" font-family="Century Gothic" font-size="34.9479" font-weight="700" fill="#000000">®</text>
        <g id="g1">
            <path id="path18" fill="#000000" stroke="none" d="M 292.600006 68 L 356.200012 68 L 356.200012 87.399994 L 315.700012 87.399994 L 315.700012 109.700012 L 356.200012 109.700012 L 356.200012 129.100006 L 315.700012 129.100006 L 315.700012 175.700012 L 292.600006 175.700012 L 292.600006 68 Z"/>
            <path id="path19" fill="#000000" stroke="none" d="M 404.799988 178.600006 C 380.5 178.600006 364.299988 161.600006 364.299988 139.700012 C 364.299988 118.200012 380.900024 100.799988 404.799988 100.799988 C 428.700012 100.799988 444.900024 117.399994 444.900024 139.700012 C 444.900024 161.600006 428.299988 178.600006 404.799988 178.600006 Z M 404.400024 120.200012 C 392.700012 120.200012 385.400024 127.899994 385.400024 139.600006 C 385.400024 151.299988 392.700012 159 404.400024 159 C 416.099976 159 423.400024 151.299988 423.400024 139.600006 C 423.5 127.899994 416.200012 120.200012 404.400024 120.200012 Z"/>
            <path id="path20" fill="#000000" stroke="none" d="M 475.299988 141.299988 C 475.299988 153 479.400024 159.100006 491.099976 159.100006 C 502.799988 159.100006 506.900024 153 506.900024 141.299988 L 506.900024 103.200012 L 528 103.200012 L 528 141.299988 C 528 166.399994 516.700012 178.600006 491.5 178.600006 C 465.599976 178.600006 454.599976 166.399994 454.599976 141.299988 L 454.599976 103.200012 L 475.299988 103.200012 L 475.299988 141.299988 Z"/>
            <path id="path21" fill="#000000" stroke="none" d="M 542.200012 103.200012 L 562.900024 103.200012 L 562.900024 114.5 C 570.599976 105.200012 578.700012 100.700012 589.599976 100.700012 C 600.900024 100.700012 608.200012 104.299988 612.700012 112 C 615.5 117.299988 615.5 123.299988 615.5 130.600006 C 615.5 131.399994 615.5 132.200012 615.5 133 L 615.5 175.100006 L 594.400024 175.100006 L 594.400024 139.399994 C 594.400024 125.600006 593.200012 117.5 580.599976 117.5 C 574.5 117.5 569.700012 119.899994 566.400024 124.399994 C 562.799988 129.299988 562.799988 134.100006 562.799988 140.200012 C 562.799988 141 562.799988 141.799988 562.799988 143 L 562.799988 174.600006 L 541.700012 174.600006 L 542.200012 103.200012 L 542.200012 103.200012 Z"/>
            <path id="path22" fill="#000000" stroke="none" d="M 769.400024 175.700012 L 769.799988 165.200012 C 764.099976 174.5 756.400024 178.600006 745.099976 178.600006 C 726.5 178.600006 713.099976 163.600006 713.099976 139.700012 C 713.099976 115.399994 725.299988 101.200012 745.900024 101.200012 C 756.400024 101.200012 764.5 106.100006 770.200012 115.399994 L 770.200012 103.700012 L 790.099976 103.700012 L 790.099976 175.799988 C 790.099976 175.700012 769.400024 175.700012 769.400024 175.700012 Z M 752.400024 118.200012 C 741.099976 118.200012 734.200012 126.299988 734.200012 139.299988 C 734.200012 152.299988 741.099976 160 752.400024 160 C 763.700012 160 770.599976 152.299988 770.599976 139.299988 C 770.700012 125.899994 763.400024 118.200012 752.400024 118.200012 Z"/>
            <path id="path23" fill="#000000" stroke="none" d="M 815.200012 119.799988 L 805.099976 119.799988 L 805.099976 103.200012 L 815.200012 103.200012 L 815.200012 79.299988 L 836.299988 79.299988 L 836.299988 103.200012 L 846.400024 103.200012 L 846.400024 119.799988 L 836.299988 119.799988 L 836.299988 175.700012 L 815.200012 175.700012 L 815.200012 119.799988 Z"/>
            <path id="path24" fill="#fab608" stroke="none" d="M 870.300049 68 C 877.199951 68 882.5 73.299988 882.5 80.200012 C 882.5 87.100006 876.800049 92.799988 870.300049 92.799988 C 863.400024 92.799988 858.099976 86.700012 858.099976 80.200012 C 858.200012 73.700012 863.400024 68 870.300049 68 Z"/>
            <path id="path25" fill="#000000" stroke="none" d="M 933.900024 178.600006 C 909.599976 178.600006 893.400024 161.600006 893.400024 139.700012 C 893.400024 118.200012 910 100.799988 933.900024 100.799988 C 957.800049 100.799988 974 117.399994 974 139.700012 C 974.400024 161.600006 957.800049 178.600006 933.900024 178.600006 Z M 933.900024 120.200012 C 922.199951 120.200012 914.900024 127.899994 914.900024 139.600006 C 914.900024 151.299988 922.199951 159 933.900024 159 C 945.599976 159 952.900024 151.299988 952.900024 139.600006 C 953 127.899994 945.699951 120.200012 933.900024 120.200012 Z"/>
            <path id="path26" fill="#000000" stroke="none" d="M 987 103.200012 L 1007.699951 103.200012 L 1007.699951 114.5 C 1015.400024 105.200012 1023.5 100.700012 1034.400024 100.700012 C 1045.699951 100.700012 1053 104.299988 1057.5 112 C 1060.300049 117.299988 1060.300049 123.299988 1060.300049 130.600006 C 1060.300049 131.399994 1060.300049 132.200012 1060.300049 133 L 1060.300049 175.100006 L 1039.199951 175.100006 L 1039.199951 139.399994 C 1039.199951 125.600006 1038 117.5 1025.400024 117.5 C 1019.300049 117.5 1014.5 119.899994 1011.199951 124.399994 C 1007.599976 129.299988 1007.599976 134.100006 1007.599976 140.200012 C 1007.599976 141 1007.599976 141.799988 1007.599976 143 L 1007.599976 174.600006 L 986.5 174.600006 L 987 103.200012 L 987 103.200012 Z"/>
            <path id="path27" fill="#000000" stroke="none" d="M 698.599976 68 L 682.799988 68 L 682.799988 102.399994 L 682.799988 114.700012 C 676.099976 105.399994 668.599976 100.799988 658.5 100.799988 C 637.799988 100.799988 625.700012 115.399994 625.700012 139.700012 C 625.700012 163.600006 639.099976 178.600006 657.700012 178.600006 C 669 178.600006 676.700012 174.5 682.400024 165.200012 L 682 175.700012 C 682 175.700012 702.700012 175.700012 702.700012 175.700012 L 702.700012 68 L 698.599976 68 Z M 664.900024 159.899994 C 653.599976 159.899994 646.700012 152.200012 646.700012 139.200012 C 646.700012 125.799988 653.599976 118.100006 664.900024 118.100006 C 675.799988 118.100006 683.099976 125.799988 683.099976 139.200012 C 683.200012 152.200012 676.299988 159.899994 664.900024 159.899994 Z"/>
        </g>
        <path id="path28" fill="#000000" stroke="none" d="M 859.799988 103.200012 L 880.900024 103.200012 L 880.900024 175.299988 L 859.799988 175.299988 Z"/>
    </g>
</svg>
