<svg xmlns="http://www.w3.org/2000/svg" width="181.629" height="118" viewBox="0 0 181.629 118">
  <g id="crossref-logo-200" transform="translate(0 -0.3)">
    <path id="Path_708" data-name="Path 708" d="M111.8,92.131V66.08L133.222,59l37.941,12.98Z" transform="translate(-10.32 -5.418)" fill="#3eb1c8"/>
    <path id="Path_709" data-name="Path 709" d="M149.741,36.8,111.8,49.871l21.422,7.08L171.163,43.88Z" transform="translate(-10.32 -3.369)" fill="#d8d2c4"/>
    <path id="Path_710" data-name="Path 710" d="M135.4,57.671,173.342,44.6V70.651Z" transform="translate(-12.499 -4.089)" fill="#4f5858"/>
    <path id="Path_711" data-name="Path 711" d="M171.163.3V26.351l-21.422,7.08L111.8,20.451Z" transform="translate(-10.32 0)" fill="#ffc72c"/>
    <path id="Path_712" data-name="Path 712" d="M149.741,35.48,111.8,48.551V22.5Z" transform="translate(-10.32 -2.049)" fill="#ef3340"/>
    <g id="Group_1661" data-name="Group 1661" transform="translate(0 82.991)">
      <g id="Group_1660" data-name="Group 1660">
        <g id="Group_1659" data-name="Group 1659">
          <g id="Group_1658" data-name="Group 1658">
            <path id="Path_713" data-name="Path 713" d="M23.872,103.563c-.454-3.358-3.722-5.9-7.352-5.9-6.626,0-9.168,5.628-9.168,11.528,0,5.628,2.542,11.255,9.168,11.255,4.538,0,7.08-3.086,7.625-7.534h7.171c-.726,8.351-6.535,13.8-14.8,13.8C6.172,126.618,0,118.9,0,109.191,0,99.206,6.172,91.4,16.52,91.4c7.443,0,13.615,4.357,14.523,12.072l-7.171.091Z" transform="translate(0 -91.4)" fill="#4f5858"/>
            <path id="Path_714" data-name="Path 714" d="M37.4,102.435h6.354v4.538h.091a8.643,8.643,0,0,1,7.806-5.174,4.111,4.111,0,0,1,1.452.272v6.263a9.893,9.893,0,0,0-2.36-.272c-4.9,0-6.626,3.54-6.626,7.806v10.983H37.4S37.4,102.435,37.4,102.435Z" transform="translate(-3.452 -92.36)" fill="#4f5858"/>
            <path id="Path_715" data-name="Path 715" d="M67.417,101.8c7.715,0,12.617,5.083,12.617,12.889,0,7.715-4.992,12.8-12.617,12.8S54.8,122.4,54.8,114.689C54.891,106.883,59.792,101.8,67.417,101.8Zm0,20.6c4.538,0,5.9-3.9,5.9-7.806s-1.362-7.806-5.9-7.806-5.9,3.9-5.9,7.806S62.969,122.4,67.417,122.4Z" transform="translate(-5.059 -92.36)" fill="#4f5858"/>
            <path id="Path_716" data-name="Path 716" d="M90.554,118.855c.091,2.9,2.542,4.085,5.174,4.085,1.906,0,4.357-.726,4.357-3.086,0-2-2.814-2.723-7.625-3.812-3.9-.817-7.715-2.178-7.715-6.535,0-6.263,5.355-7.806,10.62-7.806,5.355,0,10.257,1.815,10.711,7.806H99.722c-.182-2.632-2.178-3.268-4.538-3.268-1.543,0-3.722.272-3.722,2.269,0,2.36,3.812,2.723,7.625,3.631,3.9.908,7.715,2.269,7.715,6.808,0,6.445-5.537,8.442-11.165,8.442S84.472,125.3,84.2,118.765l6.354.091Z" transform="translate(-7.772 -92.351)" fill="#4f5858"/>
            <path id="Path_717" data-name="Path 717" d="M117.454,118.855c.091,2.9,2.542,4.085,5.174,4.085,1.906,0,4.357-.726,4.357-3.086,0-2-2.814-2.723-7.625-3.812-3.9-.817-7.715-2.178-7.715-6.535,0-6.263,5.355-7.806,10.62-7.806,5.355,0,10.257,1.815,10.711,7.806h-6.354c-.182-2.632-2.178-3.268-4.538-3.268-1.543,0-3.722.272-3.722,2.269,0,2.36,3.812,2.723,7.625,3.631,3.9.908,7.715,2.269,7.715,6.808,0,6.445-5.537,8.442-11.165,8.442s-11.165-2.088-11.437-8.623l6.354.091Z" transform="translate(-10.255 -92.351)" fill="#4f5858"/>
            <path id="Path_718" data-name="Path 718" d="M138.4,102.435h6.354v4.538h.091a8.643,8.643,0,0,1,7.806-5.174,4.111,4.111,0,0,1,1.452.272v6.263a9.893,9.893,0,0,0-2.36-.272c-4.9,0-6.626,3.54-6.626,7.806v10.983H138.4V102.435Z" transform="translate(-12.775 -92.36)" fill="#4f5858"/>
            <path id="Path_719" data-name="Path 719" d="M163.017,116.223c.182,4.266,2.269,6.172,5.991,6.172,2.723,0,4.811-1.634,5.265-3.177h5.9c-1.906,5.718-5.9,8.169-11.437,8.169-7.715,0-12.435-5.265-12.435-12.8,0-7.262,5.083-12.889,12.435-12.889,8.26,0,12.345,6.989,11.8,14.432l-17.518.091Zm10.892-4.175c-.635-3.358-2.088-5.174-5.355-5.174a5.213,5.213,0,0,0-5.537,5.174Z" transform="translate(-14.428 -92.351)" fill="#4f5858"/>
            <path id="Path_720" data-name="Path 720" d="M186.794,106.1H182.8v-4.448h3.994V99.743c0-4.266,2.723-7.443,8.169-7.443,1.18,0,2.36.182,3.54.182v4.992a22.254,22.254,0,0,0-2.451-.182c-1.815,0-2.542.726-2.542,2.814v1.452h4.629v4.448h-4.629v19.878h-6.717Z" transform="translate(-16.874 -91.483)" fill="#4f5858"/>
          </g>
        </g>
      </g>
    </g>
  </g>
</svg>
