<svg xmlns="http://www.w3.org/2000/svg" xmlns:xlink="http://www.w3.org/1999/xlink" width="253.275" height="52" viewBox="0 0 253.275 52">
  <defs>
    <linearGradient id="linear-gradient" y1="0.531" x2="1" y2="0.531" gradientUnits="objectBoundingBox">
      <stop offset="1" stop-color="#00aeef"/>
    </linearGradient>
    <linearGradient id="linear-gradient-2" y1="0.54" x2="1" y2="0.54" gradientUnits="objectBoundingBox">
      <stop offset="1" stop-color="#444"/>
      <stop offset="1" stop-color="#00aeef"/>
    </linearGradient>
    <linearGradient id="linear-gradient-3" y1="18.777" x2="1" y2="18.777" gradientUnits="objectBoundingBox">
      <stop offset="1" stop-color="#00aeef"/>
      <stop offset="1" stop-color="#004968"/>
    </linearGradient>
  </defs>
  <g id="datacite" transform="translate(-20.8 -18.24)">
    <g id="Group_1666" data-name="Group 1666" transform="translate(99.755 24.414)">
      <g id="Group_1663" data-name="Group 1663" transform="translate(0 0.266)">
        <g id="Group_1662" data-name="Group 1662">
          <path id="SVGID_1_" d="M197.094,51.4h-6.387a6.116,6.116,0,0,0-3.637.976,3.207,3.207,0,0,0-1.242,2.839c0,2.484,1.6,3.726,4.879,3.726a12.314,12.314,0,0,0,2.839-.266,5.827,5.827,0,0,0,2.129-1.242,5.787,5.787,0,0,0,1.153-3.992V51.315l.266.089Zm.177,11.888V60.9a7.816,7.816,0,0,1-3.1,2.129,13.166,13.166,0,0,1-4.081.621,15.376,15.376,0,0,1-4.258-.621,6.234,6.234,0,0,1-3.016-1.863,8.372,8.372,0,0,1-2.129-5.766,6.809,6.809,0,0,1,1.153-3.992,7.227,7.227,0,0,1,3.1-2.75,12.371,12.371,0,0,1,5.145-.976h7.1V45.815a4.826,4.826,0,0,0-1.331-3.726,7.253,7.253,0,0,0-4.524-1.242,8.61,8.61,0,0,0-3.46.621,6.642,6.642,0,0,0-2.4,1.952l-3.46-3.371A10.126,10.126,0,0,1,186,37.033a14.775,14.775,0,0,1,5.589-.887c7.363,0,11.089,3.1,11.089,9.226v17.92h-5.412Zm-20.936-4.613h2.218v4.613H175.27a7.59,7.59,0,0,1-3.992-.976,6.178,6.178,0,0,1-2.484-2.75,8.853,8.853,0,0,1-.887-3.726v-14.9h-2.928V36.855H168V28.782h5.323v8.073h5.234v4.081h-5.234V55.4C173.318,57.7,174.294,58.679,176.335,58.679ZM156.2,51.4h-6.3a6.116,6.116,0,0,0-3.637.976,3.207,3.207,0,0,0-1.242,2.839c0,2.484,1.6,3.726,4.879,3.726a12.314,12.314,0,0,0,2.839-.266,5.827,5.827,0,0,0,2.129-1.242,5.787,5.787,0,0,0,1.153-3.992V51.315l.177.089Zm.177,11.888V60.9a7.816,7.816,0,0,1-3.1,2.129,13.166,13.166,0,0,1-4.081.621,15.376,15.376,0,0,1-4.258-.621,6.234,6.234,0,0,1-3.016-1.863,8.373,8.373,0,0,1-2.129-5.766,6.809,6.809,0,0,1,1.153-3.992,7.227,7.227,0,0,1,3.1-2.75,12.371,12.371,0,0,1,5.145-.976h7.1V45.815a4.826,4.826,0,0,0-1.331-3.726,7.253,7.253,0,0,0-4.524-1.242,8.61,8.61,0,0,0-3.46.621,5.986,5.986,0,0,0-2.4,1.952l-3.46-3.371a10.126,10.126,0,0,1,3.992-3.016,14.775,14.775,0,0,1,5.589-.887c7.363,0,11.089,3.1,11.089,9.226v17.92h-5.412ZM130.914,39.073a22.187,22.187,0,0,0-.532-3.371,7.513,7.513,0,0,0-1.331-2.661,8.047,8.047,0,0,0-6.387-2.661h-7.1v27.5h7.008a8.411,8.411,0,0,0,6.387-2.484,6.508,6.508,0,0,0,1.6-3.992,52.354,52.354,0,0,0,.355-7.363Zm5.5,12.242a14.179,14.179,0,0,1-1.153,4.524,10.122,10.122,0,0,1-2.484,3.9c-2.4,2.4-5.589,3.46-9.758,3.46H109.8V25.5h13.218c4.081,0,7.363,1.153,9.758,3.46a10.971,10.971,0,0,1,2.484,3.726,23.215,23.215,0,0,1,1.153,4.258c.089,1.508.266,3.1.266,5.145v3.726A33.432,33.432,0,0,1,136.414,51.315Z" transform="translate(-109.8 -25.5)" fill="url(#linear-gradient)"/>
        </g>
      </g>
      <g id="Group_1665" data-name="Group 1665" transform="translate(98.205)">
        <g id="Group_1664" data-name="Group 1664">
          <path id="SVGID_3_" d="M293.866,46.136c-.089-.532-.355-1.242-.621-2.129a5.707,5.707,0,0,0-2.661-3.1,8.01,8.01,0,0,0-3.992-1.153A7,7,0,0,0,282.6,40.9a6.888,6.888,0,0,0-2.661,3.1,8.982,8.982,0,0,0-.621,2.129,16.551,16.551,0,0,0-.266,2.661h14.992C293.954,47.644,293.954,46.669,293.866,46.136Zm-14.815,4.879q0,4.924,2.129,7.452a7.267,7.267,0,0,0,6.121,2.661,8.992,8.992,0,0,0,3.726-.71,13.815,13.815,0,0,0,3.282-2.4l1.952,1.6a15.09,15.09,0,0,1-4.081,3.016,12.454,12.454,0,0,1-5.145.887,11.143,11.143,0,0,1-5.944-1.508,9.28,9.28,0,0,1-3.637-4.347,17.388,17.388,0,0,1-1.242-7.186,20.193,20.193,0,0,1,.71-5.5,14.555,14.555,0,0,1,1.952-4.081,9.656,9.656,0,0,1,3.282-2.661,8.764,8.764,0,0,1,4.258-.887,9.385,9.385,0,0,1,4.258.887,8.094,8.094,0,0,1,3.282,2.484,10.119,10.119,0,0,1,1.952,3.9,15.909,15.909,0,0,1,.71,5.234V51.1l-17.565-.089Zm-8.516,9.847H272.4v2.4H270a5.784,5.784,0,0,1-5.5-3.282,7.108,7.108,0,0,1-.71-3.46V39.66h-3.46V37.709h3.46V29.636h2.75v8.073h5.766V39.66h-5.766V56.516C266.542,59.354,267.961,60.863,270.534,60.863Zm-14.9,2.4h-2.75V37.709h2.75Zm-3.016-34.421V25.466h3.371v3.371Zm-12.6,1.242a9.219,9.219,0,0,0-6.387-2.4,11.685,11.685,0,0,0-3.9.71,9.132,9.132,0,0,0-3.282,2.129,7.452,7.452,0,0,0-1.6,2.129,14.337,14.337,0,0,0-.887,2.75,16.61,16.61,0,0,0-.355,3.726c0,1.331-.089,3.1-.089,5.145,0,3.016,0,5.234.089,6.831a16.114,16.114,0,0,0,.71,3.992,5.711,5.711,0,0,0,1.863,2.839,9.132,9.132,0,0,0,3.282,2.129,9.548,9.548,0,0,0,3.9.71,11.3,11.3,0,0,0,4.613-.976,8.552,8.552,0,0,0,3.46-3.016,10.494,10.494,0,0,0,1.952-4.524h2.75a13.863,13.863,0,0,1-2.4,5.855,11.648,11.648,0,0,1-4.524,3.726,13.016,13.016,0,0,1-5.944,1.331,14.707,14.707,0,0,1-5.145-.976,10.9,10.9,0,0,1-4.258-2.839,10.6,10.6,0,0,1-2.4-3.46,15.069,15.069,0,0,1-.887-4.258c-.089-1.6-.089-4.081-.089-7.452s0-5.855.089-7.452a12.519,12.519,0,0,1,.887-4.258,9.753,9.753,0,0,1,2.4-3.46,13.767,13.767,0,0,1,4.258-2.839,15.69,15.69,0,0,1,5.323-.976,13.954,13.954,0,0,1,5.944,1.331,13.087,13.087,0,0,1,4.524,3.726,15.1,15.1,0,0,1,2.4,5.855h-2.839A9.882,9.882,0,0,0,240.017,30.079Z" transform="translate(-220.5 -25.2)" fill="url(#linear-gradient-2)"/>
        </g>
      </g>
    </g>
    <path id="Path_721" data-name="Path 721" d="M20.8,58.57c.444.089.887.177,1.419.266,23.6,4.7,58.728-1.508,63.252-12.952,3.549-9.226-16.234-15.791-39.389-14.992a6.714,6.714,0,0,0-1.331.089c12.331,1.242,23.42,6.121,18.985,13.751C58.858,53.07,38.276,58.659,20.8,58.57" transform="translate(0 -1.421)" fill="url(#linear-gradient-3)"/>
    <path id="Path_722" data-name="Path 722" d="M74.729,57.061C70.649,81.9,49.18,67.085,44.123,49.786c-7.363-17.92-.8-40.985,17.565-27.5C46.519,15.366,44.922,35.5,51.4,49.875c5.411,11.976,17.122,19.694,22.8,7.363C74.463,57.149,74.641,57.149,74.729,57.061Z" transform="translate(-2.298 0)" fill="#444"/>
  </g>
</svg>
