<svg width="1200" height="1200" viewBox="0 0 1200 1200" fill="none" xmlns="http://www.w3.org/2000/svg">
<rect width="1200" height="1200" fill="white"/>
<path d="M471.13 1057.86C375.67 1057.86 298 980.2 298 884.73V804.4C298 772.4 310.46 742.32 333.08 719.7C355.7 697.08 385.78 684.62 417.77 684.62H433.82L433.81 667.51C433.79 639.93 444.51 614 463.99 594.49C483.48 574.98 509.39 564.22 536.97 564.21L574.3 564.19H574.36C601.44 564.19 626.89 574.73 646.05 593.86C665.22 613.01 675.79 638.48 675.8 665.58V667.08C675.81 694.78 665.09 720.79 645.62 740.32C626.13 759.87 600.19 770.64 572.58 770.64H519.88L519.93 836.74C519.95 865.72 529.15 892.6 544.77 914.62C545.46 912.8 546.13 911.02 546.77 909.31C558.28 878.69 572.6 840.58 602.04 809.33C628.65 781.09 663.3 763.37 705.38 756.41L705.1 242.75C705.09 219 724.33 199.74 748.08 199.73H748.1C771.84 199.73 791.09 218.97 791.1 242.71L791.42 839.05H748.4C698.03 839.05 676.47 855.75 664.63 868.32C647.03 887 636.99 913.72 627.28 939.56C623.85 948.68 620.48 957.64 616.81 966.25C628.95 969.84 641.8 971.77 655.08 971.77C755.27 971.77 836.78 890.26 836.78 790.07V555C836.78 531.25 856.03 512 879.78 512C903.53 512 922.78 531.25 922.78 555V790.07C922.78 861.58 894.93 928.8 844.37 979.36C793.81 1029.92 726.58 1057.77 655.08 1057.77C620.65 1057.77 587.41 1049.95 557.41 1035.16C531.83 1049.93 502.11 1057.84 471.13 1057.84V1057.86ZM417.77 770.63C408.75 770.63 400.27 774.14 393.89 780.52C387.51 786.9 384 795.39 384 804.41V884.74C384 932.78 423.08 971.87 471.13 971.87C474.03 971.87 476.91 971.74 479.75 971.48C450.08 933.05 433.99 886.18 433.95 836.83L433.9 770.64H417.79L417.77 770.63ZM519.82 684.65H572.57C578.76 684.65 582.83 681.5 584.7 679.62C586.6 677.71 589.8 673.55 589.79 667.12V665.62C589.79 660.04 586.95 656.38 585.26 654.69C583.57 653 579.91 650.17 574.35 650.17L537.02 650.19C530.81 650.19 526.73 653.36 524.84 655.24C522.96 657.13 519.8 661.22 519.8 667.42V684.62L519.82 684.65Z" fill="#4D00AE"/>
<path d="M474.13 540.62C450.38 540.62 431.13 521.37 431.13 497.62V217.47C431.13 193.72 450.38 174.47 474.13 174.47C497.88 174.47 517.13 193.72 517.13 217.47V497.62C517.13 521.37 497.88 540.62 474.13 540.62Z" fill="#4D00AE"/>
<path d="M607.01 540.62C583.26 540.62 564.01 521.37 564.01 497.62V185C564.01 161.25 583.26 142 607.01 142C630.76 142 650.01 161.25 650.01 185V497.63C650.01 521.38 630.76 540.63 607.01 540.63V540.62Z" fill="#4D00AE"/>
<path d="M341.25 674.16C317.5 674.16 298.25 654.91 298.25 631.16V327.24C298.25 303.49 317.5 284.24 341.25 284.24C365 284.24 384.25 303.49 384.25 327.24V631.16C384.25 654.91 365 674.16 341.25 674.16Z" fill="#4D00AE"/>
</svg>
