<?xml version="1.0" standalone="no"?>
<!DOCTYPE svg PUBLIC "-//W3C//DTD SVG 20010904//EN"
 "http://www.w3.org/TR/2001/REC-SVG-20010904/DTD/svg10.dtd">
<svg version="1.0" xmlns="http://www.w3.org/2000/svg"
 width="3426.000000pt" height="1675.000000pt" viewBox="0 0 3426.000000 1675.000000"
 preserveAspectRatio="xMidYMid meet">

<g transform="translate(0.000000,1675.000000) scale(0.100000,-0.100000)"
fill="#000000" stroke="none">
<path d="M0 8375 l0 -8375 17130 0 17130 0 0 8375 0 8375 -17130 0 -17130 0 0
-8375z m7631 4027 c78 -38 140 -100 177 -180 l27 -57 0 -1470 0 -1470 -34 -63
c-41 -75 -103 -135 -179 -170 -49 -23 -70 -27 -152 -27 -84 0 -103 3 -157 29
-69 31 -148 107 -181 172 -43 84 -43 94 -40 1569 l3 1410 23 57 c27 67 97 148
159 184 71 42 120 54 208 51 65 -3 92 -9 146 -35z m-1190 -271 c74 -29 125
-67 169 -129 75 -105 71 2 68 -1457 l-3 -1310 -27 -57 c-37 -79 -98 -142 -177
-181 -60 -29 -74 -32 -161 -32 -83 0 -103 4 -156 28 -77 36 -154 113 -191 192
l-28 60 0 1310 0 1310 31 66 c41 86 89 138 164 178 102 55 205 62 311 22z
m2331 -202 c72 -15 161 -64 204 -112 20 -22 50 -69 68 -106 l31 -66 3 -2647 2
-2648 -252 0 c-405 0 -575 -37 -754 -165 -164 -118 -267 -288 -434 -724 -64
-165 -79 -215 -69 -222 17 -10 165 -36 254 -44 88 -7 280 9 394 34 219 48 440
148 616 280 277 207 497 527 581 845 49 184 47 118 53 1371 l6 1180 23 56 c48
119 128 194 246 230 82 26 162 22 251 -12 82 -30 172 -121 206 -204 l24 -60 3
-1075 c3 -1117 -1 -1271 -38 -1478 -82 -452 -297 -870 -620 -1206 -642 -667
-1657 -899 -2444 -557 l-89 38 -111 -53 c-211 -101 -389 -139 -651 -138 -262
1 -426 39 -660 153 -156 77 -277 163 -400 286 -208 208 -351 470 -416 763 -21
91 -22 130 -26 587 -3 341 -1 514 7 570 23 156 94 331 186 461 64 90 218 232
310 286 169 99 309 138 529 147 l150 6 6 155 c6 175 20 241 79 366 54 117 106
189 202 279 94 88 157 130 275 180 138 59 203 67 540 63 l298 -3 95 -33 c216
-75 360 -186 481 -370 129 -197 172 -479 110 -717 -64 -242 -236 -458 -451
-569 -180 -92 -258 -106 -612 -106 l-268 0 0 -339 c0 -367 7 -444 56 -596 30
-91 104 -247 137 -289 l23 -28 63 162 c142 365 273 583 465 776 220 219 457
348 771 419 l100 22 1 2279 c1 2089 3 2283 18 2324 55 149 191 249 353 259 12
0 46 -4 75 -10z m-3467 -768 c79 -37 148 -104 183 -179 l27 -57 0 -1430 0
-1430 -29 -59 c-39 -79 -102 -140 -184 -179 -59 -28 -77 -32 -152 -31 -183 1
-321 107 -365 282 -13 51 -15 235 -13 1443 l3 1384 24 60 c26 64 110 158 169
189 104 54 232 57 337 7z m6855 -571 l0 -590 635 0 635 0 0 590 0 590 310 0
310 0 0 -1420 0 -1420 -310 0 -310 0 0 550 0 550 -635 0 -635 0 0 -550 0 -550
-310 0 -310 0 0 1420 0 1420 310 0 310 0 0 -590z m2812 -387 l3 -978 22 -59
c75 -198 269 -306 583 -322 402 -22 677 133 720 406 6 41 10 413 10 998 l0
932 310 0 311 0 -4 -1032 -3 -1033 -22 -85 c-50 -188 -159 -358 -305 -475
-240 -192 -596 -286 -1032 -272 -653 21 -1066 284 -1192 757 -16 59 -17 157
-20 1103 l-4 1037 310 0 311 0 2 -977z m3073 935 c9 -24 154 -401 322 -838
168 -437 308 -801 312 -808 4 -8 144 345 332 837 l324 851 403 0 402 0 0
-1420 0 -1420 -290 0 -290 0 0 933 c-1 764 -3 927 -14 907 -7 -14 -154 -433
-327 -933 l-314 -907 -224 2 -224 3 -64 185 c-103 295 -209 599 -392 1130 -95
272 -176 504 -181 515 -5 12 -9 -348 -9 -907 l-1 -928 -295 0 -295 0 0 1420 0
1420 404 0 404 0 17 -42z m4344 -595 c205 -623 701 -2136 715 -2181 l7 -22
-307 2 -308 3 -85 248 -85 247 -622 0 -621 0 -85 -247 -85 -248 -307 -3 c-290
-2 -307 -1 -302 15 11 33 567 1727 747 2276 l180 547 474 0 474 0 210 -637z
m1696 317 c116 -175 374 -569 575 -874 l365 -554 3 874 2 874 300 0 300 0 0
-1420 0 -1420 -300 0 -300 0 -30 43 c-28 41 -97 144 -790 1193 l-335 507 -3
-871 -2 -872 -300 0 -300 0 0 1420 0 1420 303 0 302 0 210 -320z m-7249 -2751
c426 -41 755 -206 927 -466 93 -140 136 -283 145 -480 l5 -123 -310 0 -310 0
-6 68 c-18 221 -174 370 -447 429 -65 14 -124 18 -250 17 -143 -1 -178 -5
-262 -27 -178 -47 -313 -142 -371 -261 -44 -90 -49 -156 -45 -673 4 -532 3
-520 75 -630 122 -185 451 -280 793 -228 296 44 475 190 505 413 l7 52 -351 0
-351 0 0 280 0 280 661 0 660 0 -3 -387 c-5 -424 -7 -447 -73 -604 -164 -389
-609 -609 -1230 -609 -701 0 -1164 272 -1288 757 -22 87 -22 98 -22 723 0 635
0 635 24 725 71 271 232 465 499 599 138 70 341 124 533 145 122 12 358 13
485 0z m-3690 -72 c297 -56 503 -150 662 -302 119 -112 197 -244 244 -410 23
-79 23 -87 23 -690 l0 -610 -28 -88 c-50 -162 -122 -282 -233 -388 -161 -153
-362 -249 -635 -301 -109 -20 -145 -21 -876 -25 l-763 -4 0 1421 0 1421 763
-4 c632 -3 776 -7 843 -20z m1854 -1397 l0 -1420 -310 0 -310 0 0 1420 0 1420
310 0 310 0 0 -1420z m3870 0 l0 -1420 -315 0 -315 0 0 1420 0 1420 315 0 315
0 0 -1420z m2700 1140 l0 -280 -445 0 -445 0 0 -1140 0 -1140 -310 0 -310 0 0
1140 0 1140 -445 0 -445 0 0 280 0 280 1200 0 1200 0 0 -280z m1913 -627 c164
-500 373 -1139 466 -1420 l169 -513 -308 0 -307 0 -85 248 -85 247 -623 0
-623 0 -85 -247 -85 -248 -303 0 c-201 0 -304 3 -304 10 0 6 198 614 441 1353
243 738 450 1372 462 1410 l20 67 476 0 477 0 297 -907z m1527 -233 l0 -1140
770 0 770 0 0 -280 0 -280 -1080 0 -1080 0 0 1420 0 1420 310 0 310 0 0 -1140z"/>
<path d="M6790 7983 c-19 -10 -45 -33 -57 -52 -20 -30 -23 -47 -23 -132 l0
-99 240 0 c264 0 286 4 332 58 51 61 46 152 -13 208 l-30 29 -207 3 c-182 2
-211 0 -242 -15z"/>
<path d="M5723 6931 c-100 -34 -171 -113 -193 -215 -8 -35 -10 -181 -8 -471 5
-474 4 -469 85 -635 40 -82 60 -108 142 -190 109 -108 208 -167 333 -199 81
-21 228 -37 252 -28 12 5 1 27 -50 104 -135 201 -236 443 -290 693 -26 122
-27 135 -31 543 l-5 417 -91 0 c-62 -1 -109 -7 -144 -19z"/>
<path d="M21493 10007 c-117 -331 -211 -603 -209 -604 2 -2 192 -2 423 -1
l421 3 -209 599 c-115 330 -210 601 -212 602 -1 2 -98 -268 -214 -599z"/>
<path d="M12160 6641 l0 -861 379 0 c216 0 413 5 457 11 192 26 348 121 414
248 47 94 50 127 50 607 0 422 -1 456 -20 516 -48 157 -172 265 -361 314 -54
14 -132 18 -491 21 l-428 5 0 -861z"/>
<path d="M22497 6887 c-114 -325 -207 -595 -207 -599 0 -5 189 -8 420 -8 231
0 420 4 420 8 0 4 -24 77 -54 162 -95 269 -343 984 -350 1008 -4 12 -10 22
-14 22 -4 0 -100 -267 -215 -593z"/>
</g>
</svg>
