<svg xmlns="http://www.w3.org/2000/svg" width="120.441" height="75.802" viewBox="0 0 120.441 75.802">
  <g id="Group_1705" data-name="Group 1705" transform="translate(-0.587 -0.587)">
    <path id="Path_757" data-name="Path 757" d="M103.741,37.928A13.74,13.74,0,0,0,90.163,24.506a13.278,13.278,0,0,0-5.785,1.322,29.479,29.479,0,0,0-57.822,8.115,31.451,31.451,0,0,0,.229,3.695h-.226c-12.208,0-22.1,8.895-22.1,19.809s9.9,19.81,22.1,19.81H99.792c12.208,0,22.1-8.907,22.1-19.822C121.9,47.726,114.064,39.592,103.741,37.928Z" transform="translate(-2.368 -2.369)" fill="#fff" stroke="#05171d" stroke-width="3"/>
  </g>
</svg>
