<svg xmlns="http://www.w3.org/2000/svg" xmlns:xlink="http://www.w3.org/1999/xlink" width="126.762" height="65.517" viewBox="0 0 126.762 65.517">
  <defs>
    <clipPath id="clip-path">
      <rect id="Rectangle_610" data-name="Rectangle 610" width="126.762" height="65.517" fill="#fab70c" stroke="rgba(0,0,0,0)" stroke-width="1"/>
    </clipPath>
  </defs>
  <g id="Group_1722" data-name="Group 1722" clip-path="url(#clip-path)">
    <path id="Path_762" data-name="Path 762" d="M127.019,35.208c-.026.675-.114,2.263-.238,3.357a29.83,29.83,0,0,1-3.378,10.9A30.629,30.629,0,0,1,95,65.7a28.326,28.326,0,0,1-17.71-6.94,46.152,46.152,0,0,1-8.211-9.55c-3.092-4.6-5.626-9.525-8.3-14.369a96.676,96.676,0,0,0-6.67-10.862,29.109,29.109,0,0,0-7.9-7.709,19.992,19.992,0,0,0-9.311-2.95,21.4,21.4,0,0,0-11.827,2.4A21.357,21.357,0,0,0,13.827,30.289,21.853,21.853,0,0,0,29.805,56.313a21.475,21.475,0,0,0,12.355-.491,20.227,20.227,0,0,0,7.264-4.5A43.115,43.115,0,0,0,56.486,42.3c.144-.234.29-.467.473-.76.278.5.513.936.76,1.364q1.964,3.4,3.939,6.8a.475.475,0,0,1,0,.614,45.279,45.279,0,0,1-7.322,8.312A27.844,27.844,0,0,1,40.8,65.209,30.662,30.662,0,0,1,9.651,52.028,29.672,29.672,0,0,1,4.912,39.882a46.8,46.8,0,0,1-.264-7.421A30.64,30.64,0,0,1,28.594,5.21a31.1,31.1,0,0,1,11.035-.4A29.426,29.426,0,0,1,57.33,14.2a59.784,59.784,0,0,1,8.4,11.632c2.685,4.686,5.24,9.447,7.911,14.141A52.443,52.443,0,0,0,80.764,50a20.64,20.64,0,0,0,9.375,6.091,21.911,21.911,0,0,0,27.413-15.628,21.822,21.822,0,0,0-15.833-26.54,21.111,21.111,0,0,0-20.836,5.907,44.71,44.71,0,0,0-5.9,7.676c-.123.194-.247.386-.386.6l-4.865-8.4c.3-.41.635-.88.983-1.341a40.4,40.4,0,0,1,7.777-8,29.885,29.885,0,0,1,4.134-2.63,27.286,27.286,0,0,1,8.446-2.8A30.7,30.7,0,0,1,122.682,19.5a29.461,29.461,0,0,1,3.983,11.332,40.767,40.767,0,0,1,.353,4.371" transform="translate(-2.406 -2.354)" fill="#b3453d" stroke="rgba(0,0,0,0)" stroke-width="1"/>
    <path id="Path_763" data-name="Path 763" d="M127.019,35.208c-.026.675-.114,2.263-.238,3.357a29.83,29.83,0,0,1-3.378,10.9A30.629,30.629,0,0,1,95,65.7a28.326,28.326,0,0,1-17.71-6.94,46.152,46.152,0,0,1-8.211-9.55c-3.092-4.6-5.626-9.525-8.3-14.369a96.676,96.676,0,0,0-6.67-10.862,29.109,29.109,0,0,0-7.9-7.709,19.992,19.992,0,0,0-9.311-2.95,21.4,21.4,0,0,0-11.827,2.4A21.357,21.357,0,0,0,13.827,30.289,21.853,21.853,0,0,0,29.805,56.313a21.475,21.475,0,0,0,12.355-.491,20.227,20.227,0,0,0,7.264-4.5A43.115,43.115,0,0,0,56.486,42.3c.144-.234.29-.467.473-.76.278.5.513.936.76,1.364q1.964,3.4,3.939,6.8a.475.475,0,0,1,0,.614,45.279,45.279,0,0,1-7.322,8.312A27.844,27.844,0,0,1,40.8,65.209,30.662,30.662,0,0,1,9.651,52.028,29.672,29.672,0,0,1,4.912,39.882a46.8,46.8,0,0,1-.264-7.421A30.64,30.64,0,0,1,28.594,5.21a31.1,31.1,0,0,1,11.035-.4A29.426,29.426,0,0,1,57.33,14.2a59.784,59.784,0,0,1,8.4,11.632c2.685,4.686,5.24,9.447,7.911,14.141A52.443,52.443,0,0,0,80.764,50a20.64,20.64,0,0,0,9.375,6.091,21.911,21.911,0,0,0,27.413-15.628,21.822,21.822,0,0,0-15.833-26.54,21.111,21.111,0,0,0-20.836,5.907,44.71,44.71,0,0,0-5.9,7.676c-.123.194-.247.386-.386.6l-4.865-8.4c.3-.41.635-.88.983-1.341a40.4,40.4,0,0,1,7.777-8A27.874,27.874,0,0,1,91.069,4.939,30.7,30.7,0,0,1,122.682,19.5a29.461,29.461,0,0,1,3.983,11.332A40.767,40.767,0,0,1,127.019,35.208Z" transform="translate(-2.406 -2.354)" fill="none" stroke="#000" stroke-linecap="round" stroke-linejoin="round" stroke-width="3"/>
    <path id="Path_764" data-name="Path 764" d="M4.7,63.132" transform="translate(-2.46 -33.025)" fill="#fab70c" stroke="rgba(0,0,0,0)" stroke-width="1"/>
  </g>
</svg>
