<?xml version="1.0" standalone="no"?>
<!DOCTYPE svg PUBLIC "-//W3C//DTD SVG 20010904//EN"
 "http://www.w3.org/TR/2001/REC-SVG-20010904/DTD/svg10.dtd">
<svg version="1.0" xmlns="http://www.w3.org/2000/svg"
 width="700.000000pt" height="700.000000pt" viewBox="0 0 700.000000 700.000000"
 preserveAspectRatio="xMidYMid meet">
<metadata>
Created by potrace 1.14, written by Peter Selinger 2001-2017
</metadata>
<g transform="translate(0.000000,700.000000) scale(0.100000,-0.100000)"
fill="#000000" stroke="none">
<path d="M2210 4573 l-1 -648 -41 50 c-211 254 -444 362 -734 341 -395 -29
-676 -247 -798 -621 -116 -356 -93 -810 55 -1109 59 -118 105 -183 189 -266
92 -90 202 -158 330 -202 94 -33 97 -33 280 -33 206 0 257 9 385 71 113 54
208 139 298 264 17 24 17 21 14 -117 l-3 -143 298 0 298 0 0 1530 0 1530 -285
0 -285 0 0 -647z m-349 -784 c164 -47 279 -175 331 -367 27 -101 29 -305 4
-406 -49 -204 -175 -338 -358 -381 -138 -32 -310 -11 -415 51 -167 98 -247
270 -246 529 0 247 72 414 220 516 119 82 303 105 464 58z"/>
<path d="M5641 5199 c-86 -28 -177 -115 -209 -202 -26 -69 -29 -174 -7 -238
40 -115 138 -205 254 -235 151 -38 308 42 384 195 29 59 32 74 32 156 0 78 -4
97 -28 147 -40 82 -120 152 -204 178 -81 25 -140 25 -222 -1z"/>
<path d="M4020 4283 c-215 -20 -415 -88 -575 -196 -84 -56 -216 -187 -274
-271 -133 -193 -194 -394 -194 -636 0 -641 479 -1100 1148 -1100 578 0 1031
370 1121 916 23 140 14 344 -19 476 -49 187 -129 337 -253 468 -95 100 -180
163 -309 226 -192 93 -434 138 -645 117z m245 -568 c230 -59 363 -229 381
-485 16 -219 -77 -421 -238 -517 -110 -67 -303 -91 -447 -58 -184 44 -317 177
-366 370 -19 76 -19 241 0 324 43 183 181 321 363 365 78 19 234 20 307 1z"/>
<path d="M5452 3178 l3 -1023 300 0 300 0 0 1020 0 1020 -303 3 -302 2 2
-1022z"/>
</g>
</svg>
