<?xml version="1.0" encoding="utf-8"?>
<!-- Generator: Adobe Illustrator 26.5.0, SVG Export Plug-In . SVG Version: 6.00 Build 0)  -->
<svg version="1.1" id="Layer_1" xmlns="http://www.w3.org/2000/svg" xmlns:xlink="http://www.w3.org/1999/xlink" x="0px" y="0px"
	 viewBox="0 0 1366 768" style="enable-background:new 0 0 1366 768;" xml:space="preserve">
<style type="text/css">
	.st0{fill:#FAB608;}
	.st1{fill:#FFFFFF;}
</style>
<path class="st0" d="M407.4,366.5c0,68.1-55.1,123.2-123.2,123.2s-123.2-55.1-123.2-123.2s55.1-123.2,123.2-123.2
	S407.4,298.4,407.4,366.5"/>
<g>
	<path d="M255,305.9h-16.1v33.4v12.5c-6.8-9.5-14.4-14.1-24.7-14.1c-21,0-33.3,14.8-33.3,39.5c0,24.2,13.6,39.5,32.5,39.5
		c11.5,0,19.3-4.1,25.1-13.6l-0.4,10.7c0,0,21,0,21,0V305.9H255z M220.8,397.7c-11.5,0-18.5-7.8-18.5-21c0-13.6,7-21.4,18.5-21.4
		c11.1,0,18.5,7.8,18.5,21.4C239.3,389.9,232.4,397.7,220.8,397.7z"/>
	<path d="M306.5,416.6c-24.3,0-40.5-17-40.5-38.9c0-21.5,16.6-38.9,40.5-38.9s40.1,16.6,40.1,38.9
		C346.6,399.6,330,416.6,306.5,416.6z M306.1,358.2c-11.7,0-19,7.7-19,19.4c0,11.7,7.3,19.4,19,19.4s19-7.7,19-19.4
		C325.2,365.9,317.9,358.2,306.1,358.2z"/>
	<path d="M364,305.9c6.9,0,12.2,5.3,12.2,12.2s-5.7,12.6-12.2,12.6c-6.9,0-12.2-6.1-12.2-12.6C351.9,311.6,357.1,305.9,364,305.9z
		 M353.5,341.9h21.1V414h-21.1V341.9z"/>
</g>
<g>
	<path class="st1" d="M423.1,287.9c0,2.3-0.6,4.5-1.7,6.5c-1.2,2-2.8,3.6-4.8,4.8c-2,1.2-4.2,1.7-6.5,1.7c-2.3,0-4.5-0.6-6.5-1.7
		c-2-1.2-3.6-2.8-4.8-4.8c-1.2-2-1.8-4.2-1.8-6.5c0-2.3,0.6-4.5,1.8-6.5c1.2-2,2.8-3.6,4.8-4.8s4.2-1.7,6.5-1.7
		c2.3,0,4.5,0.6,6.5,1.7c2,1.2,3.6,2.8,4.8,4.8C422.5,283.4,423.1,285.5,423.1,287.9z M420.4,287.9c0-2.9-1-5.3-3-7.4s-4.5-3-7.3-3
		c-2.9,0-5.3,1-7.4,3c-2,2-3,4.4-3,7.3c0,1.8,0.5,3.6,1.4,5.1c0.9,1.6,2.2,2.8,3.8,3.8c1.6,0.9,3.4,1.4,5.2,1.4
		c1.8,0,3.6-0.5,5.2-1.4c1.6-0.9,2.9-2.2,3.8-3.7C420,291.4,420.4,289.7,420.4,287.9z M404.6,280.8h6.3c1.3,0,2.3,0.1,2.9,0.4
		c0.6,0.3,1.1,0.8,1.5,1.4c0.4,0.6,0.6,1.4,0.6,2.3c0,0.8-0.1,1.4-0.3,1.9s-0.7,1-1.3,1.4c0.5,0.3,0.9,0.6,1.1,1s0.3,1,0.4,2
		c0.1,1.8,0.2,2.8,0.2,3.1c0.1,0.3,0.3,0.6,0.6,0.8H413c-0.2-0.4-0.3-0.7-0.3-1c0-0.3-0.1-0.7-0.1-1.3c0-1.3-0.1-2-0.2-2.3
		c-0.1-0.3-0.3-0.5-0.5-0.7c-0.3-0.1-0.8-0.2-1.5-0.2h-2.5v5.5h-3.1V280.8z M407.8,283.5v3.4h2.6c1,0,1.7-0.1,2-0.4
		c0.3-0.3,0.5-0.7,0.5-1.3c0-0.6-0.2-1-0.5-1.3c-0.3-0.3-1-0.4-2-0.4H407.8z"/>
</g>
<g>
	<path class="st1" d="M453.6,306h63.6v19.4h-40.5v22.3h40.5v19.4h-40.5v46.6h-23.1V306z"/>
	<path class="st1" d="M565.8,416.6c-24.3,0-40.5-17-40.5-38.9c0-21.5,16.6-38.9,40.5-38.9s40.1,16.6,40.1,38.9
		C605.9,399.6,589.3,416.6,565.8,416.6z M565.4,358.2c-11.7,0-19,7.7-19,19.4c0,11.7,7.3,19.4,19,19.4s19-7.7,19-19.4
		C584.5,365.9,577.2,358.2,565.4,358.2z"/>
	<path class="st1" d="M636.3,379.3c0,11.7,4.1,17.8,15.8,17.8s15.8-6.1,15.8-17.8v-38.1H689v38.1c0,25.1-11.3,37.3-36.5,37.3
		c-25.9,0-36.9-12.2-36.9-37.3v-38.1h20.7V379.3z"/>
	<path class="st1" d="M703.2,341.2h20.7v11.3c7.7-9.3,15.8-13.8,26.7-13.8c11.3,0,18.6,3.6,23.1,11.3c2.8,5.3,2.8,11.3,2.8,18.6
		c0,0.8,0,1.6,0,2.4v42.1h-21.1v-35.7c0-13.8-1.2-21.9-13.8-21.9c-6.1,0-10.9,2.4-14.2,6.9c-3.6,4.9-3.6,9.7-3.6,15.8
		c0,0.8,0,1.6,0,2.8v31.6h-21.1L703.2,341.2L703.2,341.2z"/>
	<path class="st1" d="M930.4,413.7l0.4-10.5c-5.7,9.3-13.4,13.4-24.7,13.4c-18.6,0-32-15-32-38.9c0-24.3,12.2-38.5,32.8-38.5
		c10.5,0,18.6,4.9,24.3,14.2v-11.7h19.9v72.1C951.1,413.7,930.4,413.7,930.4,413.7z M913.4,356.2c-11.3,0-18.2,8.1-18.2,21.1
		c0,13,6.9,20.7,18.2,20.7c11.3,0,18.2-7.7,18.2-20.7C931.7,363.9,924.4,356.2,913.4,356.2z"/>
	<path class="st1" d="M976.2,357.8h-10.1v-16.6h10.1v-23.9h21.1v23.9h10.1v16.6h-10.1v55.9h-21.1V357.8z"/>
	<path class="st0" d="M1031.3,306c6.9,0,12.2,5.3,12.2,12.2c0,6.9-5.7,12.6-12.2,12.6c-6.9,0-12.2-6.1-12.2-12.6
		C1019.2,311.7,1024.4,306,1031.3,306z"/>
	<path class="st1" d="M1094.9,416.6c-24.3,0-40.5-17-40.5-38.9c0-21.5,16.6-38.9,40.5-38.9c23.9,0,40.1,16.6,40.1,38.9
		C1135.4,399.6,1118.8,416.6,1094.9,416.6z M1094.9,358.2c-11.7,0-19,7.7-19,19.4c0,11.7,7.3,19.4,19,19.4c11.7,0,19-7.7,19-19.4
		C1114,365.9,1106.7,358.2,1094.9,358.2z"/>
	<path class="st1" d="M1148,341.2h20.7v11.3c7.7-9.3,15.8-13.8,26.7-13.8c11.3,0,18.6,3.6,23.1,11.3c2.8,5.3,2.8,11.3,2.8,18.6
		c0,0.8,0,1.6,0,2.4v42.1h-21.1v-35.7c0-13.8-1.2-21.9-13.8-21.9c-6.1,0-10.9,2.4-14.2,6.9c-3.6,4.9-3.6,9.7-3.6,15.8
		c0,0.8,0,1.6,0,2.8v31.6h-21.1L1148,341.2L1148,341.2z"/>
	<path class="st1" d="M859.6,306h-15.8v34.4v12.3c-6.7-9.3-14.2-13.9-24.3-13.9c-20.7,0-32.8,14.6-32.8,38.9
		c0,23.9,13.4,38.9,32,38.9c11.3,0,19-4.1,24.7-13.4l-0.4,10.5c0,0,20.7,0,20.7,0V306H859.6z M825.9,397.9
		c-11.3,0-18.2-7.7-18.2-20.7c0-13.4,6.9-21.1,18.2-21.1c10.9,0,18.2,7.7,18.2,21.1C844.2,390.2,837.3,397.9,825.9,397.9z"/>
</g>
<rect x="1020.8" y="341.2" class="st1" width="21.1" height="72.1"/>
</svg>
