<?xml version="1.0" encoding="utf-8"?>
<!-- Generator: Adobe Illustrator 26.5.0, SVG Export Plug-In . SVG Version: 6.00 Build 0)  -->
<svg version="1.1" id="Layer_1" xmlns="http://www.w3.org/2000/svg" xmlns:xlink="http://www.w3.org/1999/xlink" x="0px" y="0px"
	 viewBox="0 0 1366 768" style="enable-background:new 0 0 1366 768;" xml:space="preserve">
<style type="text/css">
	.st0{fill:#FAB608;}
	.st1{fill:#FFFFFF;}
</style>
<g>
	<path class="st1" d="M332.8,458.4H394v18.7h-39v21.4h39v18.7h-39v44.8h-22.2V458.4z"/>
	<path class="st1" d="M440.7,564.8c-23.4,0-39-16.4-39-37.4c0-20.7,16-37.4,39-37.4c23,0,38.6,16,38.6,37.4
		C479.3,548.4,463.3,564.8,440.7,564.8z M440.3,508.7c-11.3,0-18.3,7.4-18.3,18.7c0,11.3,7,18.7,18.3,18.7s18.3-7.4,18.3-18.7
		C458.7,516.1,451.6,508.7,440.3,508.7z"/>
	<path class="st1" d="M508.5,528.9c0,11.3,3.9,17.2,15.2,17.2c11.3,0,15.2-5.8,15.2-17.2v-36.6h20.3v36.6
		c0,24.2-10.9,35.9-35.1,35.9c-24.9,0-35.5-11.7-35.5-35.9v-36.6h19.9V528.9z"/>
	<path class="st1" d="M572.9,492.3h19.9v10.9c7.4-9,15.2-13.3,25.7-13.3c10.9,0,17.9,3.5,22.2,10.9c2.7,5.1,2.7,10.9,2.7,17.9
		c0,0.8,0,1.6,0,2.3v40.5h-20.3v-34.3c0-13.3-1.2-21-13.3-21c-5.8,0-10.5,2.3-13.6,6.6c-3.5,4.7-3.5,9.4-3.5,15.2c0,0.8,0,1.6,0,2.7
		v30.4h-20.3L572.9,492.3L572.9,492.3z"/>
	<path class="st1" d="M791.5,562.1l0.4-10.1c-5.5,9-12.9,12.9-23.8,12.9c-17.9,0-30.8-14.4-30.8-37.4c0-23.4,11.7-37,31.6-37
		c10.1,0,17.9,4.7,23.4,13.6v-11.3h19.1v69.4C811.4,562.1,791.5,562.1,791.5,562.1z M775.2,506.7c-10.9,0-17.5,7.8-17.5,20.3
		c0,12.5,6.6,19.9,17.5,19.9c10.9,0,17.5-7.4,17.5-19.9C792.7,514.1,785.7,506.7,775.2,506.7z"/>
	<path class="st1" d="M835.6,508.3h-9.7v-16h9.7v-23h20.3v23h9.7v16h-9.7v53.8h-20.3V508.3z"/>
	<path class="st0" d="M888.6,458.5c6.6,0,11.7,5.1,11.7,11.7c0,6.6-5.5,12.1-11.7,12.1c-6.6,0-11.7-5.8-11.7-12.1
		C876.9,463.9,881.9,458.5,888.6,458.5z"/>
	<rect x="878.4" y="492.3" class="st1" width="20.3" height="69.4"/>
	<path class="st1" d="M949.8,564.8c-23.4,0-39-16.4-39-37.4c0-20.7,16-37.4,39-37.4s38.6,16,38.6,37.4
		C988.7,548.4,972.8,564.8,949.8,564.8z M949.8,508.7c-11.3,0-18.3,7.4-18.3,18.7c0,11.3,7,18.7,18.3,18.7s18.3-7.4,18.3-18.7
		C968.1,516.1,961.1,508.7,949.8,508.7z"/>
	<path class="st1" d="M1000.8,492.3h19.9v10.9c7.4-9,15.2-13.3,25.7-13.3c10.9,0,17.9,3.5,22.2,10.9c2.7,5.1,2.7,10.9,2.7,17.9
		c0,0.8,0,1.6,0,2.3v40.5h-20.3v-34.3c0-13.3-1.2-21-13.3-21c-5.8,0-10.5,2.3-13.6,6.6c-3.5,4.7-3.5,9.4-3.5,15.2c0,0.8,0,1.6,0,2.7
		v30.4h-20.3L1000.8,492.3L1000.8,492.3z"/>
	<path class="st1" d="M723.3,458.4h-15.2v33.1v11.8c-6.4-9-13.6-13.4-23.4-13.4c-19.9,0-31.6,14-31.6,37.4c0,23,12.9,37.4,30.8,37.4
		c10.9,0,18.3-3.9,23.8-12.9l-0.4,10.1c0,0,19.9,0,19.9,0V458.4H723.3z M691,546.9c-10.9,0-17.5-7.4-17.5-19.9
		c0-12.9,6.6-20.3,17.5-20.3c10.5,0,17.5,7.4,17.5,20.3C708.5,539.5,701.9,546.9,691,546.9z"/>
</g>
<path class="st0" d="M537.3,323.3c0,65.3-52.9,118.2-118.2,118.2s-118.2-52.9-118.2-118.2s52.9-118.2,118.2-118.2
	S537.3,257.9,537.3,323.3"/>
<g>
	<path d="M391,265.1h-15.4v32.1v11.9c-6.5-9.1-13.8-13.5-23.7-13.5c-20.1,0-32,14.2-32,37.9c0,23.3,13,37.9,31.2,37.9
		c11,0,18.5-3.9,24.1-13l-0.4,10.3c0,0,20.1,0,20.1,0V265.1H391z M358.2,353.2c-11,0-17.8-7.5-17.8-20.1c0-13,6.7-20.5,17.8-20.5
		c10.7,0,17.8,7.5,17.8,20.5C376,345.7,369.3,353.2,358.2,353.2z"/>
	<path d="M440.5,371.3c-23.3,0-38.9-16.3-38.9-37.3c0-20.6,15.9-37.3,38.9-37.3S479,312.6,479,334C479,355,463,371.3,440.5,371.3z
		 M440.1,315.3c-11.3,0-18.3,7.4-18.3,18.7c0,11.3,7,18.7,18.3,18.7c11.3,0,18.3-7.4,18.3-18.7C458.4,322.7,451.4,315.3,440.1,315.3
		z"/>
	<path d="M495.7,265.1c6.6,0,11.7,5.1,11.7,11.7s-5.4,12.1-11.7,12.1c-6.6,0-11.7-5.8-11.7-12.1S489,265.1,495.7,265.1z
		 M485.5,299.7h20.2v69.2h-20.2V299.7z"/>
</g>
<g>
	<path class="st1" d="M552.4,247.8c0,2.2-0.6,4.3-1.7,6.2c-1.1,1.9-2.6,3.5-4.6,4.6c-1.9,1.1-4,1.7-6.3,1.7c-2.2,0-4.3-0.6-6.3-1.7
		c-1.9-1.1-3.5-2.6-4.6-4.6c-1.1-1.9-1.7-4-1.7-6.3c0-2.2,0.6-4.3,1.7-6.3c1.1-1.9,2.6-3.5,4.6-4.6c1.9-1.1,4-1.7,6.3-1.7
		c2.2,0,4.3,0.6,6.3,1.7c1.9,1.1,3.5,2.6,4.6,4.6C551.8,243.5,552.4,245.6,552.4,247.8z M549.8,247.9c0-2.8-1-5.1-2.9-7.1
		c-1.9-1.9-4.3-2.9-7-2.9c-2.8,0-5.1,1-7.1,2.9c-1.9,1.9-2.9,4.3-2.9,7c0,1.8,0.4,3.4,1.3,4.9c0.9,1.5,2.1,2.7,3.6,3.6
		c1.6,0.9,3.2,1.3,5,1.3c1.8,0,3.4-0.4,5-1.3c1.5-0.9,2.8-2.1,3.7-3.6C549.3,251.2,549.8,249.6,549.8,247.9z M534.6,241h6.1
		c1.3,0,2.2,0.1,2.8,0.4c0.6,0.3,1.1,0.7,1.4,1.3c0.4,0.6,0.5,1.3,0.5,2.2c0,0.7-0.1,1.3-0.3,1.8c-0.2,0.5-0.6,0.9-1.3,1.4
		c0.5,0.3,0.8,0.6,1,1s0.3,1,0.3,1.9c0.1,1.7,0.1,2.7,0.2,3c0.1,0.3,0.3,0.5,0.6,0.8h-3.4c-0.2-0.4-0.3-0.7-0.3-0.9
		c0-0.3-0.1-0.7-0.1-1.3c0-1.2-0.1-2-0.2-2.2c-0.1-0.3-0.3-0.5-0.5-0.6c-0.2-0.1-0.7-0.2-1.5-0.2h-2.4v5.3h-3V241z M537.6,243.6v3.3
		h2.5c1,0,1.6-0.1,1.9-0.4c0.3-0.3,0.5-0.7,0.5-1.3s-0.2-1-0.5-1.2s-1-0.4-1.9-0.4H537.6z"/>
</g>
</svg>
