<?xml version="1.0" encoding="UTF-8"?>
<!-- Generated by Pixelmator Pro 3.1.1 -->
<svg width="770" height="360" viewBox="0 0 770 360" xmlns="http://www.w3.org/2000/svg" xmlns:xlink="http://www.w3.org/1999/xlink">
    <g id="Group">
        <path id="Path" fill="#ffffff" stroke="none" d="M 31.799988 253.399994 L 93 253.399994 L 93 272.100006 L 54 272.100006 L 54 293.5 L 93 293.5 L 93 312.200012 L 54 312.200012 L 54 357 L 31.799988 357 L 31.799988 253.399994 Z"/>
        <path id="path1" fill="#ffffff" stroke="none" d="M 139.700012 359.799988 C 116.299988 359.799988 100.700012 343.400024 100.700012 322.400024 C 100.700012 301.700012 116.700012 285 139.700012 285 C 162.700012 285 178.299988 301 178.299988 322.400024 C 178.299988 343.400024 162.299988 359.799988 139.700012 359.799988 Z M 139.299988 303.700012 C 128 303.700012 121 311.099976 121 322.400024 C 121 333.700012 128 341.099976 139.299988 341.099976 C 150.600006 341.099976 157.600006 333.700012 157.600006 322.400024 C 157.700012 311.099976 150.600006 303.700012 139.299988 303.700012 Z"/>
        <path id="path2" fill="#ffffff" stroke="none" d="M 207.5 323.900024 C 207.5 335.200012 211.400024 341.099976 222.700012 341.099976 C 234 341.099976 237.900024 335.299988 237.900024 323.900024 L 237.900024 287.299988 L 258.200012 287.299988 L 258.200012 323.900024 C 258.200012 348.099976 247.299988 359.799988 223.099976 359.799988 C 198.200012 359.799988 187.600006 348.099976 187.600006 323.900024 L 187.600006 287.299988 L 207.5 287.299988 L 207.5 323.900024 Z"/>
        <path id="path3" fill="#ffffff" stroke="none" d="M 271.900024 287.299988 L 291.799988 287.299988 L 291.799988 298.200012 C 299.200012 289.200012 307 284.899994 317.5 284.899994 C 328.400024 284.899994 335.400024 288.399994 339.700012 295.799988 C 342.400024 300.899994 342.400024 306.700012 342.400024 313.700012 C 342.400024 314.5 342.400024 315.299988 342.400024 316 L 342.400024 356.5 L 322.099976 356.5 L 322.099976 322.200012 C 322.099976 308.900024 320.900024 301.200012 308.799988 301.200012 C 303 301.200012 298.299988 303.5 295.200012 307.799988 C 291.700012 312.5 291.700012 317.200012 291.700012 323 C 291.700012 323.799988 291.700012 324.599976 291.700012 325.700012 L 291.700012 356.099976 L 271.400024 356.099976 L 271.900024 287.299988 L 271.900024 287.299988 Z"/>
        <path id="path4" fill="#ffffff" stroke="none" d="M 490.5 357.099976 L 490.900024 347 C 485.400024 356 478 359.900024 467.099976 359.900024 C 449.200012 359.900024 436.299988 345.5 436.299988 322.5 C 436.299988 299.100006 448 285.5 467.900024 285.5 C 478 285.5 485.799988 290.200012 491.299988 299.100006 L 491.299988 287.799988 L 510.400024 287.799988 L 510.400024 357.200012 C 510.400024 357.099976 490.5 357.099976 490.5 357.099976 Z M 474.200012 301.700012 C 463.299988 301.700012 456.700012 309.5 456.700012 322 C 456.700012 334.5 463.299988 341.900024 474.200012 341.900024 C 485.099976 341.900024 491.700012 334.5 491.700012 322 C 491.700012 309.099976 484.700012 301.700012 474.200012 301.700012 Z"/>
        <path id="path5" fill="#ffffff" stroke="none" d="M 534.599976 303.299988 L 524.900024 303.299988 L 524.900024 287.299988 L 534.599976 287.299988 L 534.599976 264.299988 L 554.900024 264.299988 L 554.900024 287.299988 L 564.599976 287.299988 L 564.599976 303.299988 L 554.900024 303.299988 L 554.900024 357.099976 L 534.599976 357.099976 L 534.599976 303.299988 Z"/>
        <path id="path6" fill="#fab608" stroke="none" d="M 587.599976 253.5 C 594.200012 253.5 599.299988 258.600006 599.299988 265.200012 C 599.299988 271.799988 593.799988 277.299988 587.599976 277.299988 C 581 277.299988 575.900024 271.5 575.900024 265.200012 C 575.900024 258.899994 580.900024 253.5 587.599976 253.5 Z"/>
        <path id="path7" fill="#ffffff" stroke="none" d="M 577.400024 287.299988 L 597.700012 287.299988 L 597.700012 356.700012 L 577.400024 356.700012 Z"/>
        <path id="path8" fill="#ffffff" stroke="none" d="M 648.799988 359.799988 C 625.400024 359.799988 609.799988 343.400024 609.799988 322.400024 C 609.799988 301.700012 625.799988 285 648.799988 285 C 671.799988 285 687.400024 301 687.400024 322.400024 C 687.700012 343.400024 671.799988 359.799988 648.799988 359.799988 Z M 648.799988 303.700012 C 637.5 303.700012 630.5 311.099976 630.5 322.400024 C 630.5 333.700012 637.5 341.099976 648.799988 341.099976 C 660.099976 341.099976 667.099976 333.700012 667.099976 322.400024 C 667.099976 311.099976 660.099976 303.700012 648.799988 303.700012 Z"/>
        <path id="path9" fill="#ffffff" stroke="none" d="M 699.799988 287.299988 L 719.700012 287.299988 L 719.700012 298.200012 C 727.099976 289.200012 734.900024 284.899994 745.400024 284.899994 C 756.300049 284.899994 763.300049 288.399994 767.599976 295.799988 C 770.300049 300.899994 770.300049 306.700012 770.300049 313.700012 C 770.300049 314.5 770.300049 315.299988 770.300049 316 L 770.300049 356.5 L 750 356.5 L 750 322.200012 C 750 308.900024 748.800049 301.200012 736.699951 301.200012 C 730.900024 301.200012 726.199951 303.5 723.099976 307.799988 C 719.599976 312.5 719.599976 317.200012 719.599976 323 C 719.599976 323.799988 719.599976 324.599976 719.599976 325.700012 L 719.599976 356.099976 L 699.299988 356.099976 L 699.799988 287.299988 L 699.799988 287.299988 Z"/>
        <path id="path10" fill="#ffffff" stroke="none" d="M 422.299988 253.399994 L 407.099976 253.399994 L 407.099976 286.5 L 407.099976 298.299988 C 400.700012 289.299988 393.5 284.899994 383.700012 284.899994 C 363.799988 284.899994 352.099976 298.899994 352.099976 322.299988 C 352.099976 345.299988 365 359.700012 382.900024 359.700012 C 393.799988 359.700012 401.200012 355.799988 406.700012 346.799988 L 406.299988 356.900024 C 406.299988 356.900024 426.200012 356.900024 426.200012 356.900024 L 426.200012 253.399994 L 422.299988 253.399994 Z M 390 341.900024 C 379.099976 341.900024 372.5 334.5 372.5 322 C 372.5 309.099976 379.099976 301.700012 390 301.700012 C 400.5 301.700012 407.5 309.099976 407.5 322 C 407.5 334.5 400.900024 341.900024 390 341.900024 Z"/>
    </g>
    <path id="path11" fill="#fab608" stroke="none" d="M 236.299988 118.299988 C 236.299988 183.600006 183.399994 236.5 118.100006 236.5 C 52.799988 236.5 -0.100006 183.600006 -0.100006 118.299988 C -0.100006 53 52.799988 0.099976 118.100006 0.099976 C 183.399994 0.099976 236.299988 52.899994 236.299988 118.299988"/>
    <g id="g1">
        <path id="path12" fill="#000000" stroke="none" d="M 90 60.100006 L 74.600006 60.100006 L 74.600006 92.200012 L 74.600006 104.100006 C 68.100006 95 60.799988 90.600006 50.899994 90.600006 C 30.799988 90.600006 18.899994 104.799988 18.899994 128.5 C 18.899994 151.799988 31.899994 166.399994 50.100006 166.399994 C 61.100006 166.399994 68.600006 162.5 74.200012 153.399994 L 73.799988 163.700012 C 73.799988 163.700012 93.899994 163.700012 93.899994 163.700012 L 93.899994 60.100006 L 90 60.100006 Z M 57.200012 148.200012 C 46.200012 148.200012 39.399994 140.700012 39.399994 128.100006 C 39.399994 115.100006 46.100006 107.600006 57.200012 107.600006 C 67.899994 107.600006 75 115.100006 75 128.100006 C 75 140.700012 68.299988 148.200012 57.200012 148.200012 Z"/>
        <path id="path13" fill="#000000" stroke="none" d="M 139.5 166.299988 C 116.200012 166.299988 100.600006 150 100.600006 129 C 100.600006 108.399994 116.5 91.700012 139.5 91.700012 C 162.5 91.700012 178 107.600006 178 129 C 178 150 162 166.299988 139.5 166.299988 Z M 139.100006 110.299988 C 127.799988 110.299988 120.799988 117.700012 120.799988 129 C 120.799988 140.299988 127.799988 147.700012 139.100006 147.700012 C 150.399994 147.700012 157.399994 140.299988 157.399994 129 C 157.399994 117.700012 150.399994 110.299988 139.100006 110.299988 Z"/>
        <path id="path14" fill="#000000" stroke="none" d="M 194.700012 60.100006 C 201.299988 60.100006 206.399994 65.200012 206.399994 71.799988 C 206.399994 78.399994 201 83.899994 194.700012 83.899994 C 188.100006 83.899994 183 78.100006 183 71.799988 C 183 65.5 188 60.100006 194.700012 60.100006 Z M 184.5 94.700012 L 204.700012 94.700012 L 204.700012 163.899994 L 184.5 163.899994 L 184.5 94.700012 Z"/>
    </g>
    <g id="g2">
        <path id="path15" fill="#ffffff" stroke="none" d="M 251.400024 42.799988 C 251.400024 45 250.799988 47.099976 249.700012 49 C 248.599976 50.900024 247.099976 52.5 245.099976 53.600006 C 243.200012 54.700012 241.099976 55.299988 238.799988 55.299988 C 236.599976 55.299988 234.5 54.700012 232.5 53.600006 C 230.599976 52.5 229 51 227.900024 49 C 226.799988 47.099976 226.200012 45 226.200012 42.700012 C 226.200012 40.5 226.799988 38.400024 227.900024 36.400024 C 229 34.5 230.5 32.900024 232.5 31.799988 C 234.400024 30.700012 236.5 30.099976 238.799988 30.099976 C 241 30.099976 243.099976 30.700012 245.099976 31.799988 C 247 32.900024 248.599976 34.400024 249.700012 36.400024 C 250.799988 38.5 251.400024 40.599976 251.400024 42.799988 Z M 248.799988 42.900024 C 248.799988 40.099976 247.799988 37.799988 245.900024 35.799988 C 244 33.900024 241.599976 32.900024 238.900024 32.900024 C 236.099976 32.900024 233.799988 33.900024 231.799988 35.799988 C 229.900024 37.700012 228.900024 40.099976 228.900024 42.799988 C 228.900024 44.599976 229.299988 46.200012 230.200012 47.700012 C 231.099976 49.200012 232.299988 50.400024 233.799988 51.299988 C 235.400024 52.200012 237 52.600006 238.799988 52.600006 C 240.599976 52.600006 242.200012 52.200012 243.799988 51.299988 C 245.299988 50.400024 246.599976 49.200012 247.5 47.700012 C 248.299988 46.200012 248.799988 44.599976 248.799988 42.900024 Z M 233.599976 36 L 239.700012 36 C 241 36 241.900024 36.099976 242.5 36.400024 C 243.099976 36.700012 243.599976 37.099976 243.900024 37.700012 C 244.299988 38.299988 244.400024 39 244.400024 39.900024 C 244.400024 40.599976 244.299988 41.200012 244.099976 41.700012 C 243.900024 42.200012 243.5 42.599976 242.799988 43.099976 C 243.299988 43.400024 243.599976 43.700012 243.799988 44.099976 C 244 44.5 244.099976 45.099976 244.099976 46 C 244.200012 47.700012 244.200012 48.700012 244.299988 49 C 244.400024 49.299988 244.599976 49.5 244.900024 49.799988 L 241.5 49.799988 C 241.299988 49.400024 241.200012 49.099976 241.200012 48.900024 C 241.200012 48.599976 241.099976 48.200012 241.099976 47.599976 C 241.099976 46.400024 241 45.599976 240.900024 45.400024 C 240.799988 45.099976 240.599976 44.900024 240.400024 44.799988 C 240.200012 44.700012 239.700012 44.599976 238.900024 44.599976 L 236.5 44.599976 L 236.5 49.900024 L 233.5 49.900024 L 233.5 36 Z M 236.599976 38.599976 L 236.599976 41.900024 L 239.099976 41.900024 C 240.099976 41.900024 240.700012 41.799988 241 41.5 C 241.299988 41.200012 241.5 40.799988 241.5 40.200012 C 241.5 39.599976 241.299988 39.200012 241 39 C 240.700012 38.799988 240 38.599976 239.099976 38.599976 L 236.599976 38.599976 Z"/>
    </g>
</svg>
