<?xml version="1.0" encoding="UTF-8"?>
<!-- Generated by Pixelmator Pro 3.6.9 -->
<svg width="1060" height="247" viewBox="0 0 1060 247" xmlns="http://www.w3.org/2000/svg">
    <path id="Path" fill="#fab608" stroke="none" d="M 246.399994 123.5 C 246.399994 191.600006 191.299988 246.700012 123.200012 246.700012 C 55.100006 246.700012 0 191.600006 0 123.5 C 0 55.399994 55.100006 0.299988 123.200012 0.299988 C 191.299988 0.299988 246.399994 55.399994 246.399994 123.5"/>
    <g id="Group">
        <path id="path1" fill="#000000" stroke="none" d="M 94 62.899994 L 77.899994 62.899994 L 77.899994 96.299988 L 77.899994 108.799988 C 71.100006 99.299988 63.5 94.700012 53.199997 94.700012 C 32.199997 94.700012 19.899994 109.5 19.899994 134.200012 C 19.899994 158.399994 33.5 173.700012 52.399994 173.700012 C 63.899994 173.700012 71.699997 169.600006 77.5 160.100006 L 77.100006 170.799988 C 77.100006 170.799988 98.100006 170.799988 98.100006 170.799988 L 98.100006 62.899994 L 94 62.899994 Z M 59.800003 154.700012 C 48.300003 154.700012 41.300003 146.899994 41.300003 133.700012 C 41.300003 120.100006 48.300003 112.299988 59.800003 112.299988 C 70.899994 112.299988 78.300003 120.100006 78.300003 133.700012 C 78.300003 146.899994 71.399994 154.700012 59.800003 154.700012 Z"/>
        <path id="path2" fill="#000000" stroke="none" d="M 145.5 173.600006 C 121.200012 173.600006 105 156.600006 105 134.700012 C 105 113.200012 121.600006 95.799988 145.5 95.799988 C 169.399994 95.799988 185.600006 112.399994 185.600006 134.700012 C 185.600006 156.600006 169 173.600006 145.5 173.600006 Z M 145.100006 115.200012 C 133.399994 115.200012 126.100006 122.899994 126.100006 134.600006 C 126.100006 146.299988 133.399994 154 145.100006 154 C 156.799988 154 164.100006 146.299988 164.100006 134.600006 C 164.200012 122.899994 156.899994 115.200012 145.100006 115.200012 Z"/>
        <path id="path3" fill="#000000" stroke="none" d="M 203 62.899994 C 209.899994 62.899994 215.200012 68.200012 215.200012 75.100006 C 215.200012 82 209.5 87.700012 203 87.700012 C 196.100006 87.700012 190.799988 81.600006 190.799988 75.100006 C 190.899994 68.600006 196.100006 62.899994 203 62.899994 Z M 192.5 98.899994 L 213.600006 98.899994 L 213.600006 171 L 192.5 171 L 192.5 98.899994 Z"/>
    </g>
    <text id="text1" xml:space="preserve" x="235" y="60" font-family="Century Gothic" font-size="34.9479" font-weight="700" fill="#000000">®</text>
    <g id="g1">
        <path id="path4" fill="#000000" stroke="none" d="M 292.600006 63 L 356.200012 63 L 356.200012 82.399994 L 315.700012 82.399994 L 315.700012 104.700012 L 356.200012 104.700012 L 356.200012 124.100006 L 315.700012 124.100006 L 315.700012 170.700012 L 292.600006 170.700012 L 292.600006 63 Z"/>
        <path id="path5" fill="#000000" stroke="none" d="M 404.799988 173.600006 C 380.5 173.600006 364.299988 156.600006 364.299988 134.700012 C 364.299988 113.200012 380.900024 95.799988 404.799988 95.799988 C 428.700012 95.799988 444.900024 112.399994 444.900024 134.700012 C 444.900024 156.600006 428.299988 173.600006 404.799988 173.600006 Z M 404.400024 115.200012 C 392.700012 115.200012 385.400024 122.899994 385.400024 134.600006 C 385.400024 146.299988 392.700012 154 404.400024 154 C 416.099976 154 423.400024 146.299988 423.400024 134.600006 C 423.5 122.899994 416.200012 115.200012 404.400024 115.200012 Z"/>
        <path id="path6" fill="#000000" stroke="none" d="M 475.299988 136.299988 C 475.299988 148 479.400024 154.100006 491.099976 154.100006 C 502.799988 154.100006 506.900024 148 506.900024 136.299988 L 506.900024 98.200012 L 528 98.200012 L 528 136.299988 C 528 161.399994 516.700012 173.600006 491.5 173.600006 C 465.599976 173.600006 454.599976 161.399994 454.599976 136.299988 L 454.599976 98.200012 L 475.299988 98.200012 L 475.299988 136.299988 Z"/>
        <path id="path7" fill="#000000" stroke="none" d="M 542.200012 98.200012 L 562.900024 98.200012 L 562.900024 109.5 C 570.599976 100.200012 578.700012 95.700012 589.599976 95.700012 C 600.900024 95.700012 608.200012 99.299988 612.700012 107 C 615.5 112.299988 615.5 118.299988 615.5 125.600006 C 615.5 126.399994 615.5 127.200012 615.5 128 L 615.5 170.100006 L 594.400024 170.100006 L 594.400024 134.399994 C 594.400024 120.600006 593.200012 112.5 580.599976 112.5 C 574.5 112.5 569.700012 114.899994 566.400024 119.399994 C 562.799988 124.299988 562.799988 129.100006 562.799988 135.200012 C 562.799988 136 562.799988 136.799988 562.799988 138 L 562.799988 169.600006 L 541.700012 169.600006 L 542.200012 98.200012 L 542.200012 98.200012 Z"/>
        <path id="path8" fill="#000000" stroke="none" d="M 769.400024 170.700012 L 769.799988 160.200012 C 764.099976 169.5 756.400024 173.600006 745.099976 173.600006 C 726.5 173.600006 713.099976 158.600006 713.099976 134.700012 C 713.099976 110.399994 725.299988 96.200012 745.900024 96.200012 C 756.400024 96.200012 764.5 101.100006 770.200012 110.399994 L 770.200012 98.700012 L 790.099976 98.700012 L 790.099976 170.799988 C 790.099976 170.700012 769.400024 170.700012 769.400024 170.700012 Z M 752.400024 113.200012 C 741.099976 113.200012 734.200012 121.299988 734.200012 134.299988 C 734.200012 147.299988 741.099976 155 752.400024 155 C 763.700012 155 770.599976 147.299988 770.599976 134.299988 C 770.700012 120.899994 763.400024 113.200012 752.400024 113.200012 Z"/>
        <path id="path9" fill="#000000" stroke="none" d="M 815.200012 114.799988 L 805.099976 114.799988 L 805.099976 98.200012 L 815.200012 98.200012 L 815.200012 74.299988 L 836.299988 74.299988 L 836.299988 98.200012 L 846.400024 98.200012 L 846.400024 114.799988 L 836.299988 114.799988 L 836.299988 170.700012 L 815.200012 170.700012 L 815.200012 114.799988 Z"/>
        <path id="path10" fill="#fab608" stroke="none" d="M 870.300049 63 C 877.199951 63 882.5 68.299988 882.5 75.200012 C 882.5 82.100006 876.800049 87.799988 870.300049 87.799988 C 863.400024 87.799988 858.099976 81.700012 858.099976 75.200012 C 858.200012 68.700012 863.400024 63 870.300049 63 Z"/>
        <path id="path11" fill="#000000" stroke="none" d="M 933.900024 173.600006 C 909.599976 173.600006 893.400024 156.600006 893.400024 134.700012 C 893.400024 113.200012 910 95.799988 933.900024 95.799988 C 957.800049 95.799988 974 112.399994 974 134.700012 C 974.400024 156.600006 957.800049 173.600006 933.900024 173.600006 Z M 933.900024 115.200012 C 922.199951 115.200012 914.900024 122.899994 914.900024 134.600006 C 914.900024 146.299988 922.199951 154 933.900024 154 C 945.599976 154 952.900024 146.299988 952.900024 134.600006 C 953 122.899994 945.699951 115.200012 933.900024 115.200012 Z"/>
        <path id="path12" fill="#000000" stroke="none" d="M 987 98.200012 L 1007.699951 98.200012 L 1007.699951 109.5 C 1015.400024 100.200012 1023.5 95.700012 1034.400024 95.700012 C 1045.699951 95.700012 1053 99.299988 1057.5 107 C 1060.300049 112.299988 1060.300049 118.299988 1060.300049 125.600006 C 1060.300049 126.399994 1060.300049 127.200012 1060.300049 128 L 1060.300049 170.100006 L 1039.199951 170.100006 L 1039.199951 134.399994 C 1039.199951 120.600006 1038 112.5 1025.400024 112.5 C 1019.300049 112.5 1014.5 114.899994 1011.199951 119.399994 C 1007.599976 124.299988 1007.599976 129.100006 1007.599976 135.200012 C 1007.599976 136 1007.599976 136.799988 1007.599976 138 L 1007.599976 169.600006 L 986.5 169.600006 L 987 98.200012 L 987 98.200012 Z"/>
        <path id="path13" fill="#000000" stroke="none" d="M 698.599976 63 L 682.799988 63 L 682.799988 97.399994 L 682.799988 109.700012 C 676.099976 100.399994 668.599976 95.799988 658.5 95.799988 C 637.799988 95.799988 625.700012 110.399994 625.700012 134.700012 C 625.700012 158.600006 639.099976 173.600006 657.700012 173.600006 C 669 173.600006 676.700012 169.5 682.400024 160.200012 L 682 170.700012 C 682 170.700012 702.700012 170.700012 702.700012 170.700012 L 702.700012 63 L 698.599976 63 Z M 664.900024 154.899994 C 653.599976 154.899994 646.700012 147.200012 646.700012 134.200012 C 646.700012 120.799988 653.599976 113.100006 664.900024 113.100006 C 675.799988 113.100006 683.099976 120.799988 683.099976 134.200012 C 683.200012 147.200012 676.299988 154.899994 664.900024 154.899994 Z"/>
    </g>
    <path id="path14" fill="#000000" stroke="none" d="M 859.799988 98.200012 L 880.900024 98.200012 L 880.900024 170.299988 L 859.799988 170.299988 Z"/>
</svg>
